<svg width="42" height="41" viewBox="0 0 42 41" fill="none" xmlns="http://www.w3.org/2000/svg">
<path d="M2 1L5.63542 36.3393L22 41L38.3646 36.3393L42 1H2ZM34.6146 8.14286L34.1146 12.3661L22.1042 16.7679L22.0729 16.7768H33.6875L32.3542 29.8661L22.125 32.4286L11.8333 29.8214L11.1667 23.2232H16.2604L16.5938 26.6429L22.0729 27.8304L27.7708 26.4554L28.1562 20.9554L10.8333 20.9107V20.9018L10.8125 20.9107L10.4375 16.7768L22.1146 12.6071L22.7917 12.3661H9.98958L9.38542 8.14286H34.6146Z" fill="#9EB9E6"/>
<path d="M0 0L3.63542 35.3393L20 40L36.3646 35.3393L40 0H0ZM32.6146 7.14286L32.1146 11.3661L20.1042 15.7679L20.0729 15.7768H31.6875L30.3542 28.8661L20.125 31.4286L9.83333 28.8214L9.16667 22.2232H14.2604L14.5938 25.6429L20.0729 26.8304L25.7708 25.4554L26.1562 19.9554L8.83333 19.9107V19.9018L8.8125 19.9107L8.4375 15.7768L20.1146 11.6071L20.7917 11.3661H7.98958L7.38542 7.14286H32.6146Z" fill="#E5E7EB"/>
</svg>
