<svg width="52" height="41" viewBox="0 0 52 41" fill="none" xmlns="http://www.w3.org/2000/svg">
<path d="M23.123 11.5498H15.3789C11.4727 10.5326 2.63477 10.7941 2.63477 18.7961C2.63477 21.712 4.09961 23.7561 6.05273 24.7055C3.60156 26.9336 2.43945 27.9799 2.43945 29.4718C2.43945 30.5374 2.87891 31.5159 4.1875 32.0681C2.79102 33.3662 2 34.3059 2 36.0787C2 39.1884 4.73438 41 11.9219 41C18.8359 41 22.8398 38.4425 22.8398 33.9087C22.8398 28.2221 18.4258 28.4352 8.03516 27.8055L9.34375 25.713C12.0098 26.4493 20.9355 26.6818 20.9355 19.1351C20.9355 17.3236 20.1836 16.0642 19.4707 15.1535L23.123 14.8823V11.5401V11.5498ZM16.9316 34.984C16.9316 38.0937 6.6875 38.0937 6.6875 35.2165C6.6875 34.4318 7.20508 33.7634 7.72266 33.1337C15.3105 33.6471 16.9316 33.4631 16.9316 34.984ZM11.9707 21.9445C6.81445 21.9445 7.03906 15.047 12.0879 15.047C16.9219 15.047 17.0488 21.9445 11.9707 21.9445ZM24.9883 31.6806V28.5708C27.5957 28.2124 27.6445 28.3771 27.6445 27.5052V15.9286C27.6445 15.1051 27.4395 15.2117 24.9883 14.3495L25.4277 11.1623H33.6504V27.5052C33.6504 28.1349 33.6895 28.2124 34.2852 28.2899L36.3066 28.5612V31.6709H24.9883V31.6806ZM30.1152 8.0138C27.8496 8.0138 26.541 6.71567 26.541 4.46815C26.541 2.22063 27.8496 1 30.1152 1C32.4199 1 33.7285 2.22063 33.7285 4.46815C33.7285 6.71567 32.4199 8.0138 30.1152 8.0138ZM52 30.1596C50.291 30.983 47.791 31.7387 45.5254 31.7387C40.7988 31.7387 39.0117 29.8496 39.0117 25.3933V15.076C39.0117 14.5529 39.1094 14.6789 35.916 14.6789V11.172C39.4121 10.7748 40.7988 9.04069 41.2383 4.74909H45.0078C45.0078 11.1235 44.8809 10.736 45.3301 10.736H50.9258V14.6692H45.0078V24.0758C45.0078 24.7442 44.5293 29.0552 50.9258 26.6721L52 30.1402V30.1596Z" fill="#9EB9E6"/>
<path d="M21.123 10.5498H13.3789C9.47266 9.53257 0.634766 9.79414 0.634766 17.7961C0.634766 20.712 2.09961 22.7561 4.05273 23.7055C1.60156 25.9336 0.439453 26.9799 0.439453 28.4718C0.439453 29.5374 0.878906 30.5159 2.1875 31.0681C0.791016 32.3662 0 33.3059 0 35.0787C0 38.1884 2.73438 40 9.92188 40C16.8359 40 20.8398 37.4425 20.8398 32.9087C20.8398 27.2221 16.4258 27.4352 6.03516 26.8055L7.34375 24.713C10.0098 25.4493 18.9355 25.6818 18.9355 18.1351C18.9355 16.3236 18.1836 15.0642 17.4707 14.1535L21.123 13.8823V10.5401V10.5498ZM14.9316 33.984C14.9316 37.0937 4.6875 37.0937 4.6875 34.2165C4.6875 33.4318 5.20508 32.7634 5.72266 32.1337C13.3105 32.6471 14.9316 32.4631 14.9316 33.984ZM9.9707 20.9445C4.81445 20.9445 5.03906 14.047 10.0879 14.047C14.9219 14.047 15.0488 20.9445 9.9707 20.9445ZM22.9883 30.6806V27.5708C25.5957 27.2124 25.6445 27.3771 25.6445 26.5052V14.9286C25.6445 14.1051 25.4395 14.2117 22.9883 13.3495L23.4277 10.1623H31.6504V26.5052C31.6504 27.1349 31.6895 27.2124 32.2852 27.2899L34.3066 27.5612V30.6709H22.9883V30.6806ZM28.1152 7.0138C25.8496 7.0138 24.541 5.71567 24.541 3.46815C24.541 1.22063 25.8496 0 28.1152 0C30.4199 0 31.7285 1.22063 31.7285 3.46815C31.7285 5.71567 30.4199 7.0138 28.1152 7.0138ZM50 29.1596C48.291 29.983 45.791 30.7387 43.5254 30.7387C38.7988 30.7387 37.0117 28.8496 37.0117 24.3933V14.076C37.0117 13.5529 37.1094 13.6789 33.916 13.6789V10.172C37.4121 9.77476 38.7988 8.04069 39.2383 3.74909H43.0078C43.0078 10.1235 42.8809 9.73601 43.3301 9.73601H48.9258V13.6692H43.0078V23.0758C43.0078 23.7442 42.5293 28.0552 48.9258 25.6721L50 29.1402V29.1596Z" fill="#E5E7EB"/>
</svg>
