<svg width="41" height="41" viewBox="0 0 41 41" fill="none" xmlns="http://www.w3.org/2000/svg">
<path d="M14.379 33.2079C14.379 33.3734 14.1935 33.5057 13.9597 33.5057C13.6935 33.5305 13.5081 33.3982 13.5081 33.2079C13.5081 33.0425 13.6935 32.9102 13.9274 32.9102C14.1694 32.8854 14.379 33.0177 14.379 33.2079ZM11.871 32.8357C11.8145 33.0012 11.9758 33.1914 12.2177 33.241C12.4274 33.3237 12.6694 33.241 12.7177 33.0756C12.7661 32.9102 12.6129 32.7199 12.371 32.6455C12.1613 32.5876 11.9274 32.6703 11.871 32.8357ZM15.4355 32.6951C15.2016 32.753 15.0403 32.9102 15.0645 33.1004C15.0887 33.2658 15.2984 33.3734 15.5403 33.3155C15.7742 33.2576 15.9355 33.1004 15.9113 32.935C15.8871 32.7778 15.6694 32.6703 15.4355 32.6951ZM20.7419 1C9.55645 1 1 9.70954 1 21.1817C1 30.3544 6.62903 38.2037 14.6694 40.9663C15.7016 41.1565 16.0645 40.5031 16.0645 39.9655C16.0645 39.4527 16.0403 36.6239 16.0403 34.887C16.0403 34.887 10.3952 36.1277 9.20968 32.4222C9.20968 32.4222 8.29032 30.0153 6.96774 29.3949C6.96774 29.3949 5.12097 28.0964 7.09677 28.1212C7.09677 28.1212 9.10484 28.2866 10.2097 30.2551C11.9758 33.4478 14.9355 32.5297 16.0887 31.9838C16.2742 30.6604 16.7984 29.7423 17.379 29.1964C12.871 28.6836 8.32258 28.0136 8.32258 20.0568C8.32258 17.7822 8.93548 16.6408 10.2258 15.1851C10.0161 14.6474 9.33065 12.4308 10.4355 9.56893C12.121 9.03131 16 11.8021 16 11.8021C17.6129 11.339 19.3468 11.0991 21.0645 11.0991C22.7823 11.0991 24.5161 11.339 26.129 11.8021C26.129 11.8021 30.0081 9.02304 31.6935 9.56893C32.7984 12.439 32.1129 14.6474 31.9032 15.1851C33.1935 16.6491 33.9839 17.7905 33.9839 20.0568C33.9839 28.0385 29.2339 28.6753 24.7258 29.1964C25.4677 29.8498 26.0968 31.0905 26.0968 33.0342C26.0968 35.8216 26.0726 39.2707 26.0726 39.9489C26.0726 40.4866 26.4436 41.14 27.4677 40.9498C35.5323 38.2037 41 30.3544 41 21.1817C41 9.70954 31.9274 1 20.7419 1ZM8.83871 29.5273C8.73387 29.61 8.75806 29.8002 8.89516 29.9574C9.02419 30.0897 9.20968 30.1476 9.31452 30.0401C9.41935 29.9574 9.39516 29.7671 9.25806 29.61C9.12903 29.4776 8.94355 29.4197 8.83871 29.5273ZM7.96774 28.8573C7.91129 28.9648 7.99194 29.0972 8.15323 29.1799C8.28226 29.2626 8.44355 29.2378 8.5 29.122C8.55645 29.0145 8.47581 28.8821 8.31452 28.7994C8.15323 28.7498 8.02419 28.7746 7.96774 28.8573ZM10.5806 31.8018C10.4516 31.9094 10.5 32.1575 10.6855 32.3147C10.871 32.5049 11.1048 32.5297 11.2097 32.3974C11.3145 32.2898 11.2661 32.0417 11.1048 31.8846C10.9274 31.6943 10.6855 31.6695 10.5806 31.8018ZM9.66129 30.586C9.53226 30.6687 9.53226 30.8837 9.66129 31.074C9.79032 31.2642 10.0081 31.3469 10.1129 31.2642C10.2419 31.1567 10.2419 30.9416 10.1129 30.7514C10 30.5612 9.79032 30.4785 9.66129 30.586Z" fill="#9EB9E6"/>
<path d="M13.379 32.2079C13.379 32.3734 13.1935 32.5057 12.9597 32.5057C12.6935 32.5305 12.5081 32.3982 12.5081 32.2079C12.5081 32.0425 12.6935 31.9102 12.9274 31.9102C13.1694 31.8854 13.379 32.0177 13.379 32.2079ZM10.871 31.8357C10.8145 32.0012 10.9758 32.1914 11.2177 32.241C11.4274 32.3237 11.6694 32.241 11.7177 32.0756C11.7661 31.9102 11.6129 31.7199 11.371 31.6455C11.1613 31.5876 10.9274 31.6703 10.871 31.8357ZM14.4355 31.6951C14.2016 31.753 14.0403 31.9102 14.0645 32.1004C14.0887 32.2658 14.2984 32.3734 14.5403 32.3155C14.7742 32.2576 14.9355 32.1004 14.9113 31.935C14.8871 31.7778 14.6694 31.6703 14.4355 31.6951ZM19.7419 0C8.55645 0 0 8.70954 0 20.1817C0 29.3544 5.62903 37.2037 13.6694 39.9663C14.7016 40.1565 15.0645 39.5031 15.0645 38.9655C15.0645 38.4527 15.0403 35.6239 15.0403 33.887C15.0403 33.887 9.39516 35.1277 8.20968 31.4222C8.20968 31.4222 7.29032 29.0153 5.96774 28.3949C5.96774 28.3949 4.12097 27.0964 6.09677 27.1212C6.09677 27.1212 8.10484 27.2866 9.20968 29.2551C10.9758 32.4478 13.9355 31.5297 15.0887 30.9838C15.2742 29.6604 15.7984 28.7423 16.379 28.1964C11.871 27.6836 7.32258 27.0136 7.32258 19.0568C7.32258 16.7822 7.93548 15.6408 9.22581 14.1851C9.01613 13.6474 8.33064 11.4308 9.43548 8.56893C11.121 8.03131 15 10.8021 15 10.8021C16.6129 10.339 18.3468 10.0991 20.0645 10.0991C21.7823 10.0991 23.5161 10.339 25.129 10.8021C25.129 10.8021 29.0081 8.02304 30.6935 8.56893C31.7984 11.439 31.1129 13.6474 30.9032 14.1851C32.1936 15.6491 32.9839 16.7905 32.9839 19.0568C32.9839 27.0385 28.2339 27.6753 23.7258 28.1964C24.4677 28.8498 25.0968 30.0905 25.0968 32.0342C25.0968 34.8216 25.0726 38.2707 25.0726 38.9489C25.0726 39.4866 25.4435 40.14 26.4677 39.9498C34.5323 37.2037 40 29.3544 40 20.1817C40 8.70954 30.9274 0 19.7419 0ZM7.83871 28.5273C7.73387 28.61 7.75806 28.8002 7.89516 28.9574C8.02419 29.0897 8.20968 29.1476 8.31452 29.0401C8.41936 28.9574 8.39516 28.7671 8.25806 28.61C8.12903 28.4776 7.94355 28.4197 7.83871 28.5273ZM6.96774 27.8573C6.91129 27.9648 6.99194 28.0972 7.15323 28.1799C7.28226 28.2626 7.44355 28.2378 7.5 28.122C7.55645 28.0145 7.47581 27.8821 7.31452 27.7994C7.15323 27.7498 7.02419 27.7746 6.96774 27.8573ZM9.58065 30.8018C9.45161 30.9094 9.5 31.1575 9.68548 31.3147C9.87097 31.5049 10.1048 31.5297 10.2097 31.3974C10.3145 31.2898 10.2661 31.0417 10.1048 30.8846C9.92742 30.6943 9.68548 30.6695 9.58065 30.8018ZM8.66129 29.586C8.53226 29.6687 8.53226 29.8837 8.66129 30.074C8.79032 30.2642 9.00806 30.3469 9.1129 30.2642C9.24193 30.1567 9.24193 29.9416 9.1129 29.7514C9 29.5612 8.79032 29.4785 8.66129 29.586Z" fill="#E5E7EB"/>
</svg>
