<svg width="42" height="41" viewBox="0 0 42 41" fill="none" xmlns="http://www.w3.org/2000/svg">
<path d="M2 1L5.63542 36.3393L21.9479 41L38.3646 36.3393L42 1H2ZM34.1042 12.4196H14.9583L15.3854 16.8304H33.6771L32.2604 30.0804L22.0625 32.4911V32.5179H21.9479L11.6667 30.0804L11.0417 23.3125H16.0104L16.375 26.7143L21.9479 28.0089L27.5417 26.7143L28.1667 21.1607H10.7812L9.44792 8.16071H34.5625L34.1042 12.4196Z" fill="#9EB9E6"/>
<path d="M0 0L3.63542 35.3393L19.9479 40L36.3646 35.3393L40 0H0ZM32.1042 11.4196H12.9583L13.3854 15.8304H31.6771L30.2604 29.0804L20.0625 31.4911V31.5179H19.9479L9.66667 29.0804L9.04167 22.3125H14.0104L14.375 25.7143L19.9479 27.0089L25.5417 25.7143L26.1667 20.1607H8.78125L7.44792 7.16071H32.5625L32.1042 11.4196Z" fill="#E5E7EB"/>
</svg>
