<svg width="40" height="40" viewBox="0 0 40 40" fill="none" xmlns="http://www.w3.org/2000/svg">
<g clip-path="url(#clip0_147_30)">
<path d="M20.0141 11.7063C20.0766 11.7375 20.1266 11.8125 20.2016 11.8125C20.2704 11.8125 20.3766 11.7875 20.3829 11.7188C20.3954 11.6313 20.2641 11.575 20.1829 11.5375C20.0766 11.4938 19.9391 11.475 19.8391 11.5313C19.8141 11.5438 19.7891 11.575 19.8016 11.6C19.8204 11.6813 19.9454 11.6688 20.0141 11.7063ZM18.6454 11.8125C18.7204 11.8125 18.7704 11.7375 18.8329 11.7063C18.9016 11.6688 19.0266 11.6813 19.0516 11.6063C19.0641 11.5813 19.0391 11.55 19.0141 11.5375C18.9141 11.4813 18.7766 11.5 18.6704 11.5438C18.5891 11.5813 18.4579 11.6375 18.4704 11.725C18.4766 11.7875 18.5829 11.8188 18.6454 11.8125ZM32.4579 29.2375C32.2329 28.9875 32.1266 28.5125 32.0079 28.0063C31.8954 27.5 31.7641 26.9563 31.3516 26.6063C31.2704 26.5375 31.1891 26.475 31.1016 26.425C31.0204 26.375 30.9329 26.3313 30.8454 26.3C31.4204 24.5938 31.1954 22.8938 30.6141 21.3563C29.9016 19.475 28.6579 17.8313 27.7079 16.7063C26.6391 15.3625 25.6016 14.0875 25.6204 12.2063C25.6516 9.33752 25.9391 4.00627 20.8829 4.00002C14.4829 3.98752 16.0829 10.4625 16.0141 12.45C15.9079 13.9125 15.6141 15.0625 14.6079 16.4938C13.4266 17.9 11.7641 20.1688 10.9766 22.5375C10.6016 23.6563 10.4266 24.7938 10.5891 25.8688C10.1829 26.2313 9.87663 26.7875 9.55163 27.1313C9.28913 27.4 8.90788 27.5 8.48913 27.65C8.07038 27.8 7.61413 28.025 7.33288 28.5563C7.20163 28.8 7.15788 29.0625 7.15788 29.3313C7.15788 29.575 7.19538 29.825 7.23288 30.0688C7.30788 30.575 7.38913 31.05 7.28288 31.3688C6.95788 32.2688 6.91413 32.8938 7.14538 33.35C7.38288 33.8063 7.85788 34.0063 8.40163 34.1188C9.48288 34.3438 10.9516 34.2875 12.1079 34.9C13.3454 35.55 14.6016 35.7813 15.6016 35.55C16.3266 35.3875 16.9204 34.95 17.2204 34.2875C18.0016 34.2813 18.8641 33.95 20.2391 33.875C21.1704 33.8 22.3391 34.2063 23.6829 34.1313C23.7204 34.275 23.7704 34.4188 23.8391 34.55V34.5563C24.3579 35.6 25.3266 36.075 26.3579 35.9938C27.3954 35.9125 28.4891 35.3063 29.3766 34.25C30.2266 33.225 31.6266 32.8 32.5579 32.2375C33.0204 31.9563 33.3954 31.6063 33.4266 31.0938C33.4516 30.5813 33.1516 30.0125 32.4579 29.2375ZM20.1954 9.45627C20.8079 8.06877 22.3329 8.09377 22.9454 9.43127C23.3516 10.3188 23.1704 11.3625 22.6766 11.9563C22.5766 11.9063 22.3079 11.7938 21.8891 11.65C21.9579 11.575 22.0829 11.4813 22.1329 11.3625C22.4329 10.625 22.1204 9.67502 21.5641 9.65627C21.1079 9.62502 20.6954 10.3313 20.8266 11.0938C20.5704 10.9688 20.2391 10.875 20.0141 10.8188C19.9516 10.3875 19.9954 9.90627 20.1954 9.45627ZM17.6516 8.73752C18.2829 8.73752 18.9516 9.62502 18.8454 10.8313C18.6266 10.8938 18.4016 10.9875 18.2079 11.1188C18.2829 10.5625 18.0016 9.86252 17.6079 9.89377C17.0829 9.93752 16.9954 11.2188 17.4954 11.65C17.5579 11.7 17.6141 11.6375 17.1266 11.9938C16.1516 11.0813 16.4704 8.73752 17.6516 8.73752ZM16.8016 12.5313C17.1891 12.2438 17.6516 11.9063 17.6829 11.875C17.9766 11.6 18.5266 10.9875 19.4266 10.9875C19.8704 10.9875 20.4016 11.1313 21.0454 11.5438C21.4391 11.8 21.7516 11.8188 22.4579 12.125C22.9829 12.3438 23.3141 12.7313 23.1141 13.2625C22.9516 13.7063 22.4266 14.1625 21.6954 14.3938C21.0016 14.6188 20.4579 15.3938 19.3079 15.325C19.0641 15.3125 18.8704 15.2625 18.7079 15.1938C18.2079 14.975 17.9454 14.5438 17.4579 14.2563C16.9204 13.9563 16.6329 13.6063 16.5391 13.3C16.4516 12.9938 16.5391 12.7375 16.8016 12.5313ZM17.0079 33.4063C16.8391 35.6 14.2641 35.5563 12.3016 34.5313C10.4329 33.5438 8.01413 34.125 7.52038 33.1625C7.37038 32.8688 7.37038 32.3688 7.68288 31.5125V31.5C7.83288 31.025 7.72038 30.5 7.64538 30.0063C7.57038 29.5188 7.53288 29.0688 7.70163 28.7563C7.92038 28.3375 8.23288 28.1875 8.62663 28.05C9.27038 27.8188 9.36413 27.8375 9.85163 27.4313C10.1954 27.075 10.4454 26.625 10.7454 26.3063C11.0641 25.9625 11.3704 25.8 11.8516 25.875C12.3579 25.95 12.7954 26.3 13.2204 26.875L14.4454 29.1C15.0391 30.3438 17.1391 32.125 17.0079 33.4063ZM16.9204 31.7875C16.6641 31.375 16.3204 30.9375 16.0204 30.5625C16.4641 30.5625 16.9079 30.425 17.0641 30.0063C17.2079 29.6188 17.0641 29.075 16.6016 28.45C15.7579 27.3125 14.2079 26.4188 14.2079 26.4188C13.3641 25.8938 12.8891 25.25 12.6704 24.55C12.4516 23.85 12.4829 23.0938 12.6516 22.35C12.9766 20.9188 13.8141 19.525 14.3516 18.65C14.4954 18.5438 14.4016 18.85 13.8079 19.95C13.2766 20.9563 12.2829 23.2813 13.6454 25.1C13.6829 23.8063 13.9891 22.4875 14.5079 21.2563C15.2579 19.5438 16.8391 16.575 16.9641 14.2125C17.0329 14.2625 17.2516 14.4125 17.3516 14.4688C17.6391 14.6375 17.8579 14.8875 18.1391 15.1125C18.9141 15.7375 19.9204 15.6875 20.7891 15.1875C21.1766 14.9688 21.4891 14.7188 21.7829 14.625C22.4016 14.4313 22.8954 14.0875 23.1766 13.6875C23.6579 15.5875 24.7829 18.3313 25.5016 19.6688C25.8829 20.3813 26.6454 21.8875 26.9766 23.7063C27.1829 23.7 27.4141 23.7313 27.6579 23.7938C28.5204 21.5625 26.9266 19.1563 26.2016 18.4875C25.9079 18.2 25.8954 18.075 26.0391 18.0813C26.8266 18.7813 27.8641 20.1875 28.2391 21.7688C28.4141 22.4938 28.4454 23.25 28.2641 24C29.2891 24.425 30.5079 25.1188 30.1829 26.175C30.0454 26.1688 29.9829 26.175 29.9204 26.175C30.1204 25.5438 29.6766 25.075 28.4954 24.5438C27.2704 24.0063 26.2454 24.0063 26.1016 25.325C25.3454 25.5875 24.9579 26.2438 24.7641 27.0313C24.5891 27.7313 24.5391 28.575 24.4891 29.525C24.4579 30.0063 24.2641 30.65 24.0641 31.3375C22.0579 32.7688 19.2704 33.3938 16.9204 31.7875ZM33.0079 31.0688C32.9516 32.1188 30.4329 32.3125 29.0579 33.975C28.2329 34.9563 27.2204 35.5 26.3329 35.5688C25.4454 35.6375 24.6766 35.2688 24.2266 34.3625C23.9329 33.6688 24.0766 32.9188 24.2954 32.0938C24.5266 31.2063 24.8704 30.2938 24.9141 29.5563C24.9641 28.6063 25.0204 27.775 25.1766 27.1375C25.3391 26.4938 25.5891 26.0625 26.0329 25.8188C26.0516 25.8063 26.0766 25.8 26.0954 25.7875C26.1454 26.6125 26.5516 27.45 27.2704 27.6313C28.0579 27.8375 29.1891 27.1625 29.6704 26.6125C30.2329 26.5938 30.6516 26.5563 31.0829 26.9313C31.7016 27.4625 31.5266 28.825 32.1516 29.5313C32.8141 30.2563 33.0266 30.75 33.0079 31.0688ZM17.0454 13.2938C17.1704 13.4125 17.3391 13.575 17.5454 13.7375C17.9579 14.0625 18.5329 14.4 19.2516 14.4C19.9766 14.4 20.6579 14.0313 21.2391 13.725C21.5454 13.5625 21.9204 13.2875 22.1641 13.075C22.4079 12.8625 22.5329 12.6813 22.3579 12.6625C22.1829 12.6438 22.1954 12.825 21.9829 12.9813C21.7079 13.1813 21.3766 13.4438 21.1141 13.5938C20.6516 13.8563 19.8954 14.2313 19.2454 14.2313C18.5954 14.2313 18.0766 13.9313 17.6891 13.625C17.4954 13.4688 17.3329 13.3125 17.2079 13.1938C17.1141 13.1063 17.0891 12.9063 16.9391 12.8875C16.8516 12.8813 16.8266 13.1188 17.0454 13.2938Z" fill="#9EB9E6"/>
<path d="M19.8061 11.7062C19.8686 11.7375 19.9186 11.8125 19.9936 11.8125C20.0624 11.8125 20.1686 11.7875 20.1749 11.7187C20.1874 11.6312 20.0561 11.575 19.9749 11.5375C19.8686 11.4937 19.7311 11.475 19.6311 11.5312C19.6061 11.5437 19.5811 11.575 19.5936 11.6C19.6124 11.6812 19.7374 11.6687 19.8061 11.7062ZM18.4374 11.8125C18.5124 11.8125 18.5624 11.7375 18.6249 11.7062C18.6936 11.6687 18.8186 11.6812 18.8436 11.6062C18.8561 11.5812 18.8311 11.55 18.8061 11.5375C18.7061 11.4812 18.5686 11.5 18.4624 11.5437C18.3811 11.5812 18.2499 11.6375 18.2624 11.725C18.2686 11.7875 18.3749 11.8187 18.4374 11.8125ZM32.2499 29.2375C32.0249 28.9875 31.9186 28.5125 31.7999 28.0062C31.6874 27.5 31.5561 26.9562 31.1436 26.6062C31.0624 26.5375 30.9811 26.475 30.8936 26.425C30.8124 26.375 30.7249 26.3312 30.6374 26.3C31.2124 24.5937 30.9874 22.8937 30.4061 21.3562C29.6936 19.475 28.4499 17.8312 27.4999 16.7062C26.4311 15.3625 25.3936 14.0875 25.4124 12.2062C25.4436 9.33749 25.7311 4.00624 20.6749 3.99999C14.2749 3.98749 15.8749 10.4625 15.8061 12.45C15.6999 13.9125 15.4061 15.0625 14.3999 16.4937C13.2186 17.9 11.5561 20.1687 10.7686 22.5375C10.3936 23.6562 10.2186 24.7937 10.3811 25.8687C9.97488 26.2312 9.66863 26.7875 9.34363 27.1312C9.08113 27.4 8.69988 27.5 8.28113 27.65C7.86238 27.8 7.40613 28.025 7.12488 28.5562C6.99363 28.8 6.94988 29.0625 6.94988 29.3312C6.94988 29.575 6.98738 29.825 7.02488 30.0687C7.09988 30.575 7.18113 31.05 7.07488 31.3687C6.74988 32.2687 6.70613 32.8937 6.93738 33.35C7.17488 33.8062 7.64988 34.0062 8.19363 34.1187C9.27488 34.3437 10.7436 34.2875 11.8999 34.9C13.1374 35.55 14.3936 35.7812 15.3936 35.55C16.1186 35.3875 16.7124 34.95 17.0124 34.2875C17.7936 34.2812 18.6561 33.95 20.0311 33.875C20.9624 33.8 22.1311 34.2062 23.4749 34.1312C23.5124 34.275 23.5624 34.4187 23.6311 34.55V34.5562C24.1499 35.6 25.1186 36.075 26.1499 35.9937C27.1874 35.9125 28.2811 35.3062 29.1686 34.25C30.0186 33.225 31.4186 32.8 32.3499 32.2375C32.8124 31.9562 33.1874 31.6062 33.2186 31.0937C33.2436 30.5812 32.9436 30.0125 32.2499 29.2375ZM19.9874 9.45624C20.5999 8.06874 22.1249 8.09374 22.7374 9.43124C23.1436 10.3187 22.9624 11.3625 22.4686 11.9562C22.3686 11.9062 22.0999 11.7937 21.6811 11.65C21.7499 11.575 21.8749 11.4812 21.9249 11.3625C22.2249 10.625 21.9124 9.67499 21.3561 9.65624C20.8999 9.62499 20.4874 10.3312 20.6186 11.0937C20.3624 10.9687 20.0311 10.875 19.8061 10.8187C19.7436 10.3875 19.7874 9.90624 19.9874 9.45624ZM17.4436 8.73749C18.0749 8.73749 18.7436 9.62499 18.6374 10.8312C18.4186 10.8937 18.1936 10.9875 17.9999 11.1187C18.0749 10.5625 17.7936 9.86249 17.3999 9.89374C16.8749 9.93749 16.7874 11.2187 17.2874 11.65C17.3499 11.7 17.4061 11.6375 16.9186 11.9937C15.9436 11.0812 16.2624 8.73749 17.4436 8.73749ZM16.5936 12.5312C16.9811 12.2437 17.4436 11.9062 17.4749 11.875C17.7686 11.6 18.3186 10.9875 19.2186 10.9875C19.6624 10.9875 20.1936 11.1312 20.8374 11.5437C21.2311 11.8 21.5436 11.8187 22.2499 12.125C22.7749 12.3437 23.1061 12.7312 22.9061 13.2625C22.7436 13.7062 22.2186 14.1625 21.4874 14.3937C20.7936 14.6187 20.2499 15.3937 19.0999 15.325C18.8561 15.3125 18.6624 15.2625 18.4999 15.1937C17.9999 14.975 17.7374 14.5437 17.2499 14.2562C16.7124 13.9562 16.4249 13.6062 16.3311 13.3C16.2436 12.9937 16.3311 12.7375 16.5936 12.5312ZM16.7999 33.4062C16.6311 35.6 14.0561 35.5562 12.0936 34.5312C10.2249 33.5437 7.80613 34.125 7.31238 33.1625C7.16238 32.8687 7.16238 32.3687 7.47488 31.5125V31.5C7.62488 31.025 7.51238 30.5 7.43738 30.0062C7.36238 29.5187 7.32488 29.0687 7.49363 28.7562C7.71238 28.3375 8.02488 28.1875 8.41863 28.05C9.06238 27.8187 9.15613 27.8375 9.64363 27.4312C9.98738 27.075 10.2374 26.625 10.5374 26.3062C10.8561 25.9625 11.1624 25.8 11.6436 25.875C12.1499 25.95 12.5874 26.3 13.0124 26.875L14.2374 29.1C14.8311 30.3437 16.9311 32.125 16.7999 33.4062ZM16.7124 31.7875C16.4561 31.375 16.1124 30.9375 15.8124 30.5625C16.2561 30.5625 16.6999 30.425 16.8561 30.0062C16.9999 29.6187 16.8561 29.075 16.3936 28.45C15.5499 27.3125 13.9999 26.4187 13.9999 26.4187C13.1561 25.8937 12.6811 25.25 12.4624 24.55C12.2436 23.85 12.2749 23.0937 12.4436 22.35C12.7686 20.9187 13.6061 19.525 14.1436 18.65C14.2874 18.5437 14.1936 18.85 13.5999 19.95C13.0686 20.9562 12.0749 23.2812 13.4374 25.1C13.4749 23.8062 13.7811 22.4875 14.2999 21.2562C15.0499 19.5437 16.6311 16.575 16.7561 14.2125C16.8249 14.2625 17.0436 14.4125 17.1436 14.4687C17.4311 14.6375 17.6499 14.8875 17.9311 15.1125C18.7061 15.7375 19.7124 15.6875 20.5811 15.1875C20.9686 14.9687 21.2811 14.7187 21.5749 14.625C22.1936 14.4312 22.6874 14.0875 22.9686 13.6875C23.4499 15.5875 24.5749 18.3312 25.2936 19.6687C25.6749 20.3812 26.4374 21.8875 26.7686 23.7062C26.9749 23.7 27.2061 23.7312 27.4499 23.7937C28.3124 21.5625 26.7186 19.1562 25.9936 18.4875C25.6999 18.2 25.6874 18.075 25.8311 18.0812C26.6186 18.7812 27.6561 20.1875 28.0311 21.7687C28.2061 22.4937 28.2374 23.25 28.0561 24C29.0811 24.425 30.2999 25.1187 29.9749 26.175C29.8374 26.1687 29.7749 26.175 29.7124 26.175C29.9124 25.5437 29.4686 25.075 28.2874 24.5437C27.0624 24.0062 26.0374 24.0062 25.8936 25.325C25.1374 25.5875 24.7499 26.2437 24.5561 27.0312C24.3811 27.7312 24.3311 28.575 24.2811 29.525C24.2499 30.0062 24.0561 30.65 23.8561 31.3375C21.8499 32.7687 19.0624 33.3937 16.7124 31.7875ZM32.7999 31.0687C32.7436 32.1187 30.2249 32.3125 28.8499 33.975C28.0249 34.9562 27.0124 35.5 26.1249 35.5687C25.2374 35.6375 24.4686 35.2687 24.0186 34.3625C23.7249 33.6687 23.8686 32.9187 24.0874 32.0937C24.3186 31.2062 24.6624 30.2937 24.7061 29.5562C24.7561 28.6062 24.8124 27.775 24.9686 27.1375C25.1311 26.4937 25.3811 26.0625 25.8249 25.8187C25.8436 25.8062 25.8686 25.8 25.8874 25.7875C25.9374 26.6125 26.3436 27.45 27.0624 27.6312C27.8499 27.8375 28.9811 27.1625 29.4624 26.6125C30.0249 26.5937 30.4436 26.5562 30.8749 26.9312C31.4936 27.4625 31.3186 28.825 31.9436 29.5312C32.6061 30.2562 32.8186 30.75 32.7999 31.0687ZM16.8374 13.2937C16.9624 13.4125 17.1311 13.575 17.3374 13.7375C17.7499 14.0625 18.3249 14.4 19.0436 14.4C19.7686 14.4 20.4499 14.0312 21.0311 13.725C21.3374 13.5625 21.7124 13.2875 21.9561 13.075C22.1999 12.8625 22.3249 12.6812 22.1499 12.6625C21.9749 12.6437 21.9874 12.825 21.7749 12.9812C21.4999 13.1812 21.1686 13.4437 20.9061 13.5937C20.4436 13.8562 19.6874 14.2312 19.0374 14.2312C18.3874 14.2312 17.8686 13.9312 17.4811 13.625C17.2874 13.4687 17.1249 13.3125 16.9999 13.1937C16.9061 13.1062 16.8811 12.9062 16.7311 12.8875C16.6436 12.8812 16.6186 13.1187 16.8374 13.2937Z" fill="#E5E7EB"/>
</g>
<defs>
<clipPath id="clip0_147_30">
<rect width="40" height="40" fill="white"/>
</clipPath>
</defs>
</svg>
