<svg width="50" height="50" viewBox="0 0 50 50" fill="none" xmlns="http://www.w3.org/2000/svg">
<path d="M25 13.1641C38.3906 13.1641 48.6875 18.8047 48.6875 25C48.6875 31.1953 38.3828 36.8359 25 36.8359C11.6094 36.8359 1.3125 31.1953 1.3125 25C1.3125 18.8047 11.6172 13.1641 25 13.1641ZM25 11.8516C11.1953 11.8516 0 17.7344 0 25C0 32.2656 11.1953 38.1484 25 38.1484C38.8047 38.1484 50 32.2656 50 25C50 17.7344 38.8047 11.8516 25 11.8516ZM17.0469 23.9453C16.4297 27.1094 14.25 26.7812 11.5703 26.7812L12.6406 21.2656C15.6094 21.2656 17.625 20.9453 17.0469 23.9453ZM7.60938 32.3672H10.4766L11.1562 28.8672C14.3672 28.8672 16.3594 29.1016 18.2031 27.375C20.2422 25.5 20.7734 22.1641 19.3203 20.4922C18.5625 19.6172 17.3438 19.1875 15.6875 19.1875H10.1641L7.60938 32.3672ZM22.1172 15.6797H24.9688L24.2891 19.1797C26.75 19.1797 29.0312 19 30.1328 20.0156C31.2891 21.0781 30.7344 22.4375 29.4844 28.8516H26.5938C27.7969 22.6484 28.0234 22.1328 27.5859 21.6641C27.1641 21.2109 26.2031 21.3047 23.8828 21.3047L22.4141 28.8516H19.5625L22.1172 15.6797ZM39.4531 23.9453C38.8281 27.1562 36.5859 26.7812 33.9766 26.7812L35.0469 21.2656C38.0312 21.2656 40.0312 20.9453 39.4531 23.9453ZM30.0156 32.3672H32.8906L33.5703 28.8672C36.9453 28.8672 38.8125 29.0625 40.6172 27.375C42.6562 25.5 43.1875 22.1641 41.7344 20.4922C40.9766 19.6172 39.7578 19.1875 38.1016 19.1875H32.5781L30.0156 32.3672Z" fill="#E5E7EB"/>
</svg>
