<svg width="51" height="51" viewBox="0 0 51 51" fill="none" xmlns="http://www.w3.org/2000/svg">
<path d="M26 14.1641C39.3906 14.1641 49.6875 19.8047 49.6875 26C49.6875 32.1953 39.3828 37.8359 26 37.8359C12.6094 37.8359 2.3125 32.1953 2.3125 26C2.3125 19.8047 12.6172 14.1641 26 14.1641ZM26 12.8516C12.1953 12.8516 1 18.7344 1 26C1 33.2656 12.1953 39.1484 26 39.1484C39.8047 39.1484 51 33.2656 51 26C51 18.7344 39.8047 12.8516 26 12.8516ZM18.0469 24.9453C17.4297 28.1094 15.25 27.7812 12.5703 27.7812L13.6406 22.2656C16.6094 22.2656 18.625 21.9453 18.0469 24.9453ZM8.60938 33.3672H11.4766L12.1562 29.8672C15.3672 29.8672 17.3594 30.1016 19.2031 28.375C21.2422 26.5 21.7734 23.1641 20.3203 21.4922C19.5625 20.6172 18.3438 20.1875 16.6875 20.1875H11.1641L8.60938 33.3672ZM23.1172 16.6797H25.9688L25.2891 20.1797C27.75 20.1797 30.0312 20 31.1328 21.0156C32.2891 22.0781 31.7344 23.4375 30.4844 29.8516H27.5938C28.7969 23.6484 29.0234 23.1328 28.5859 22.6641C28.1641 22.2109 27.2031 22.3047 24.8828 22.3047L23.4141 29.8516H20.5625L23.1172 16.6797ZM40.4531 24.9453C39.8281 28.1562 37.5859 27.7812 34.9766 27.7812L36.0469 22.2656C39.0312 22.2656 41.0312 21.9453 40.4531 24.9453ZM31.0156 33.3672H33.8906L34.5703 29.8672C37.9453 29.8672 39.8125 30.0625 41.6172 28.375C43.6563 26.5 44.1875 23.1641 42.7344 21.4922C41.9766 20.6172 40.7578 20.1875 39.1016 20.1875H33.5781L31.0156 33.3672Z" fill="#9EB9E6"/>
<path d="M25 13.1641C38.3906 13.1641 48.6875 18.8047 48.6875 25C48.6875 31.1953 38.3828 36.8359 25 36.8359C11.6094 36.8359 1.3125 31.1953 1.3125 25C1.3125 18.8047 11.6172 13.1641 25 13.1641ZM25 11.8516C11.1953 11.8516 0 17.7344 0 25C0 32.2656 11.1953 38.1484 25 38.1484C38.8047 38.1484 50 32.2656 50 25C50 17.7344 38.8047 11.8516 25 11.8516ZM17.0469 23.9453C16.4297 27.1094 14.25 26.7812 11.5703 26.7812L12.6406 21.2656C15.6094 21.2656 17.625 20.9453 17.0469 23.9453ZM7.60938 32.3672H10.4766L11.1562 28.8672C14.3672 28.8672 16.3594 29.1016 18.2031 27.375C20.2422 25.5 20.7734 22.1641 19.3203 20.4922C18.5625 19.6172 17.3438 19.1875 15.6875 19.1875H10.1641L7.60938 32.3672ZM22.1172 15.6797H24.9688L24.2891 19.1797C26.75 19.1797 29.0312 19 30.1328 20.0156C31.2891 21.0781 30.7344 22.4375 29.4844 28.8516H26.5938C27.7969 22.6484 28.0234 22.1328 27.5859 21.6641C27.1641 21.2109 26.2031 21.3047 23.8828 21.3047L22.4141 28.8516H19.5625L22.1172 15.6797ZM39.4531 23.9453C38.8281 27.1562 36.5859 26.7812 33.9766 26.7812L35.0469 21.2656C38.0312 21.2656 40.0312 20.9453 39.4531 23.9453ZM30.0156 32.3672H32.8906L33.5703 28.8672C36.9453 28.8672 38.8125 29.0625 40.6172 27.375C42.6562 25.5 43.1875 22.1641 41.7344 20.4922C40.9766 19.6172 39.7578 19.1875 38.1016 19.1875H32.5781L30.0156 32.3672Z" fill="#E5E7EB"/>
</svg>
