<svg width="42" height="40" viewBox="0 0 42 40" fill="none" xmlns="http://www.w3.org/2000/svg">
<path d="M41.2667 15.0442C40.5792 12.2854 39.2757 10.2051 36.499 10.2051H32.9187V14.4371C32.9187 17.7227 30.1331 20.4905 26.9546 20.4905H17.4192C14.8122 20.4905 12.6515 22.7226 12.6515 25.3385V34.4275C12.6515 37.0167 14.9014 38.5345 17.4192 39.2756C20.437 40.1595 23.3387 40.3202 26.9546 39.2756C29.3563 38.5792 31.7223 37.1774 31.7223 34.4275V30.7937H22.1959V29.5795H36.499C39.2757 29.5795 40.3024 27.642 41.2667 24.7403C42.2666 21.7494 42.222 18.8745 41.2667 15.0442ZM27.5528 36.8471C26.8743 36.8917 26.2225 36.5614 25.8654 35.981C25.5172 35.3918 25.5172 34.6686 25.8654 34.0793C26.2225 33.499 26.8743 33.1686 27.5528 33.2133C28.2314 33.1686 28.8831 33.499 29.2403 34.0793C29.5885 34.6686 29.5885 35.3918 29.2403 35.981C28.8831 36.5614 28.2314 36.8917 27.5528 36.8471ZM16.9817 19.2941H26.5171C29.1688 19.2941 31.2848 17.1067 31.2848 14.446V5.34815C31.2848 2.75895 29.1063 0.821516 26.5171 0.384031C23.3208 -0.142737 19.8477 -0.115952 16.9817 0.392959C12.9461 1.10722 12.214 2.59824 12.214 5.35707V8.99088H21.7584V10.2051H8.63378C5.85709 10.2051 3.42859 11.8747 2.66969 15.0442C1.79472 18.678 1.759 20.9458 2.66969 24.7403C3.34824 27.5617 4.96426 29.5795 7.74095 29.5795H11.0176V25.2225C11.0176 22.0708 13.7408 19.2941 16.9817 19.2941ZM16.3925 2.91966C17.4014 2.91966 18.2138 3.73213 18.2138 4.74102C18.2138 5.74992 17.4014 6.56239 16.3925 6.56239C15.3836 6.56239 14.5711 5.74992 14.5711 4.74102C14.5711 3.73213 15.3836 2.91966 16.3925 2.91966Z" fill="#9EB9E6"/>
<path d="M39.2667 15.0442C38.5792 12.2854 37.2757 10.2051 34.499 10.2051H30.9187V14.4371C30.9187 17.7227 28.1331 20.4905 24.9546 20.4905H15.4192C12.8122 20.4905 10.6515 22.7226 10.6515 25.3385V34.4275C10.6515 37.0167 12.9014 38.5345 15.4192 39.2756C18.437 40.1595 21.3387 40.3202 24.9546 39.2756C27.3563 38.5792 29.7223 37.1774 29.7223 34.4275V30.7937H20.1959V29.5795H34.499C37.2757 29.5795 38.3024 27.642 39.2667 24.7403C40.2666 21.7494 40.222 18.8745 39.2667 15.0442ZM25.5528 36.8471C24.8743 36.8917 24.2225 36.5614 23.8654 35.981C23.5172 35.3918 23.5172 34.6686 23.8654 34.0793C24.2225 33.499 24.8743 33.1686 25.5528 33.2133C26.2314 33.1686 26.8831 33.499 27.2403 34.0793C27.5885 34.6686 27.5885 35.3918 27.2403 35.981C26.8831 36.5614 26.2314 36.8917 25.5528 36.8471ZM14.9817 19.2941H24.5171C27.1688 19.2941 29.2848 17.1067 29.2848 14.446V5.34815C29.2848 2.75895 27.1063 0.821516 24.5171 0.384031C21.3208 -0.142737 17.8477 -0.115952 14.9817 0.392959C10.9461 1.10722 10.214 2.59824 10.214 5.35707V8.99088H19.7584V10.2051H6.63378C3.85709 10.2051 1.42859 11.8747 0.669688 15.0442C-0.205284 18.678 -0.240997 20.9458 0.669688 24.7403C1.34824 27.5617 2.96426 29.5795 5.74095 29.5795H9.01764V25.2225C9.01764 22.0708 11.7408 19.2941 14.9817 19.2941ZM14.3925 2.91966C15.4014 2.91966 16.2138 3.73213 16.2138 4.74102C16.2138 5.74992 15.4014 6.56239 14.3925 6.56239C13.3836 6.56239 12.5711 5.74992 12.5711 4.74102C12.5711 3.73213 13.3836 2.91966 14.3925 2.91966Z" fill="#E5E7EB"/>
</svg>
