<svg width="48" height="57" viewBox="0 0 48 57" fill="none" xmlns="http://www.w3.org/2000/svg">
<path d="M7.62637 50L6.16637 47.35H5.75637V50H4.04637V42.98H6.91637C7.4697 42.98 7.9397 43.0767 8.32637 43.27C8.7197 43.4633 9.01303 43.73 9.20637 44.07C9.3997 44.4033 9.49637 44.7767 9.49637 45.19C9.49637 45.6567 9.36303 46.0733 9.09637 46.44C8.83637 46.8067 8.4497 47.0667 7.93637 47.22L9.55637 50H7.62637ZM5.75637 46.14H6.81637C7.1297 46.14 7.36303 46.0633 7.51637 45.91C7.67637 45.7567 7.75637 45.54 7.75637 45.26C7.75637 44.9933 7.67637 44.7833 7.51637 44.63C7.36303 44.4767 7.1297 44.4 6.81637 44.4H5.75637V46.14ZM16.0298 47.12C16.0298 47.28 16.0198 47.4467 15.9998 47.62H12.1298C12.1565 47.9667 12.2665 48.2333 12.4598 48.42C12.6598 48.6 12.9031 48.69 13.1898 48.69C13.6165 48.69 13.9131 48.51 14.0798 48.15H15.8998C15.8065 48.5167 15.6365 48.8467 15.3898 49.14C15.1498 49.4333 14.8465 49.6633 14.4798 49.83C14.1131 49.9967 13.7031 50.08 13.2498 50.08C12.7031 50.08 12.2165 49.9633 11.7898 49.73C11.3631 49.4967 11.0298 49.1633 10.7898 48.73C10.5498 48.2967 10.4298 47.79 10.4298 47.21C10.4298 46.63 10.5465 46.1233 10.7798 45.69C11.0198 45.2567 11.3531 44.9233 11.7798 44.69C12.2065 44.4567 12.6965 44.34 13.2498 44.34C13.7898 44.34 14.2698 44.4533 14.6898 44.68C15.1098 44.9067 15.4365 45.23 15.6698 45.65C15.9098 46.07 16.0298 46.56 16.0298 47.12ZM14.2798 46.67C14.2798 46.3767 14.1798 46.1433 13.9798 45.97C13.7798 45.7967 13.5298 45.71 13.2298 45.71C12.9431 45.71 12.6998 45.7933 12.4998 45.96C12.3065 46.1267 12.1865 46.3633 12.1398 46.67H14.2798ZM16.7919 47.2C16.7919 46.6267 16.8986 46.1233 17.1119 45.69C17.3319 45.2567 17.6286 44.9233 18.0019 44.69C18.3752 44.4567 18.7919 44.34 19.2519 44.34C19.6452 44.34 19.9886 44.42 20.2819 44.58C20.5819 44.74 20.8119 44.95 20.9719 45.21V44.42H22.6819V50H20.9719V49.21C20.8052 49.47 20.5719 49.68 20.2719 49.84C19.9786 50 19.6352 50.08 19.2419 50.08C18.7886 50.08 18.3752 49.9633 18.0019 49.73C17.6286 49.49 17.3319 49.1533 17.1119 48.72C16.8986 48.28 16.7919 47.7733 16.7919 47.2ZM20.9719 47.21C20.9719 46.7833 20.8519 46.4467 20.6119 46.2C20.3786 45.9533 20.0919 45.83 19.7519 45.83C19.4119 45.83 19.1219 45.9533 18.8819 46.2C18.6486 46.44 18.5319 46.7733 18.5319 47.2C18.5319 47.6267 18.6486 47.9667 18.8819 48.22C19.1219 48.4667 19.4119 48.59 19.7519 48.59C20.0919 48.59 20.3786 48.4667 20.6119 48.22C20.8519 47.9733 20.9719 47.6367 20.9719 47.21ZM23.779 47.21C23.779 46.63 23.8957 46.1233 24.129 45.69C24.369 45.2567 24.699 44.9233 25.119 44.69C25.5457 44.4567 26.0324 44.34 26.579 44.34C27.279 44.34 27.8624 44.5233 28.329 44.89C28.8024 45.2567 29.1124 45.7733 29.259 46.44H27.439C27.2857 46.0133 26.989 45.8 26.549 45.8C26.2357 45.8 25.9857 45.9233 25.799 46.17C25.6124 46.41 25.519 46.7567 25.519 47.21C25.519 47.6633 25.6124 48.0133 25.799 48.26C25.9857 48.5 26.2357 48.62 26.549 48.62C26.989 48.62 27.2857 48.4067 27.439 47.98H29.259C29.1124 48.6333 28.8024 49.1467 28.329 49.52C27.8557 49.8933 27.2724 50.08 26.579 50.08C26.0324 50.08 25.5457 49.9633 25.119 49.73C24.699 49.4967 24.369 49.1633 24.129 48.73C23.8957 48.2967 23.779 47.79 23.779 47.21ZM33.4837 48.55V50H32.6137C31.9937 50 31.5104 49.85 31.1637 49.55C30.817 49.2433 30.6437 48.7467 30.6437 48.06V45.84H29.9637V44.42H30.6437V43.06H32.3537V44.42H33.4737V45.84H32.3537V48.08C32.3537 48.2467 32.3937 48.3667 32.4737 48.44C32.5537 48.5133 32.687 48.55 32.8737 48.55H33.4837ZM39.0362 42.98V47.76C39.0362 48.5 38.8262 49.07 38.4062 49.47C37.9929 49.87 37.4329 50.07 36.7262 50.07C35.9862 50.07 35.3929 49.86 34.9462 49.44C34.4995 49.02 34.2762 48.4233 34.2762 47.65H35.9762C35.9762 47.9433 36.0362 48.1667 36.1562 48.32C36.2762 48.4667 36.4495 48.54 36.6762 48.54C36.8829 48.54 37.0429 48.4733 37.1562 48.34C37.2695 48.2067 37.3262 48.0133 37.3262 47.76V42.98H39.0362ZM42.8875 50.08C42.4008 50.08 41.9675 49.9967 41.5875 49.83C41.2075 49.6633 40.9075 49.4367 40.6875 49.15C40.4675 48.8567 40.3441 48.53 40.3175 48.17H42.0075C42.0275 48.3633 42.1175 48.52 42.2775 48.64C42.4375 48.76 42.6341 48.82 42.8675 48.82C43.0808 48.82 43.2441 48.78 43.3575 48.7C43.4775 48.6133 43.5375 48.5033 43.5375 48.37C43.5375 48.21 43.4541 48.0933 43.2875 48.02C43.1208 47.94 42.8508 47.8533 42.4775 47.76C42.0775 47.6667 41.7441 47.57 41.4775 47.47C41.2108 47.3633 40.9808 47.2 40.7875 46.98C40.5941 46.7533 40.4975 46.45 40.4975 46.07C40.4975 45.75 40.5841 45.46 40.7575 45.2C40.9375 44.9333 41.1975 44.7233 41.5375 44.57C41.8841 44.4167 42.2941 44.34 42.7675 44.34C43.4675 44.34 44.0175 44.5133 44.4175 44.86C44.8241 45.2067 45.0575 45.6667 45.1175 46.24H43.5375C43.5108 46.0467 43.4241 45.8933 43.2775 45.78C43.1375 45.6667 42.9508 45.61 42.7175 45.61C42.5175 45.61 42.3641 45.65 42.2575 45.73C42.1508 45.8033 42.0975 45.9067 42.0975 46.04C42.0975 46.2 42.1808 46.32 42.3475 46.4C42.5208 46.48 42.7875 46.56 43.1475 46.64C43.5608 46.7467 43.8975 46.8533 44.1575 46.96C44.4175 47.06 44.6441 47.2267 44.8375 47.46C45.0375 47.6867 45.1408 47.9933 45.1475 48.38C45.1475 48.7067 45.0541 49 44.8675 49.26C44.6875 49.5133 44.4241 49.7133 44.0775 49.86C43.7375 50.0067 43.3408 50.08 42.8875 50.08Z" fill="#9EB9E6"/>
<path d="M6.62637 50L5.16637 47.35H4.75637V50H3.04637V42.98H5.91637C6.4697 42.98 6.9397 43.0767 7.32637 43.27C7.7197 43.4633 8.01303 43.73 8.20637 44.07C8.3997 44.4033 8.49637 44.7767 8.49637 45.19C8.49637 45.6567 8.36303 46.0733 8.09637 46.44C7.83637 46.8067 7.4497 47.0667 6.93637 47.22L8.55637 50H6.62637ZM4.75637 46.14H5.81637C6.1297 46.14 6.36303 46.0633 6.51637 45.91C6.67637 45.7567 6.75637 45.54 6.75637 45.26C6.75637 44.9933 6.67637 44.7833 6.51637 44.63C6.36303 44.4767 6.1297 44.4 5.81637 44.4H4.75637V46.14ZM15.0298 47.12C15.0298 47.28 15.0198 47.4467 14.9998 47.62H11.1298C11.1565 47.9667 11.2665 48.2333 11.4598 48.42C11.6598 48.6 11.9031 48.69 12.1898 48.69C12.6165 48.69 12.9131 48.51 13.0798 48.15H14.8998C14.8065 48.5167 14.6365 48.8467 14.3898 49.14C14.1498 49.4333 13.8465 49.6633 13.4798 49.83C13.1131 49.9967 12.7031 50.08 12.2498 50.08C11.7031 50.08 11.2165 49.9633 10.7898 49.73C10.3631 49.4967 10.0298 49.1633 9.7898 48.73C9.5498 48.2967 9.4298 47.79 9.4298 47.21C9.4298 46.63 9.54647 46.1233 9.7798 45.69C10.0198 45.2567 10.3531 44.9233 10.7798 44.69C11.2065 44.4567 11.6965 44.34 12.2498 44.34C12.7898 44.34 13.2698 44.4533 13.6898 44.68C14.1098 44.9067 14.4365 45.23 14.6698 45.65C14.9098 46.07 15.0298 46.56 15.0298 47.12ZM13.2798 46.67C13.2798 46.3767 13.1798 46.1433 12.9798 45.97C12.7798 45.7967 12.5298 45.71 12.2298 45.71C11.9431 45.71 11.6998 45.7933 11.4998 45.96C11.3065 46.1267 11.1865 46.3633 11.1398 46.67H13.2798ZM15.7919 47.2C15.7919 46.6267 15.8986 46.1233 16.1119 45.69C16.3319 45.2567 16.6286 44.9233 17.0019 44.69C17.3752 44.4567 17.7919 44.34 18.2519 44.34C18.6452 44.34 18.9886 44.42 19.2819 44.58C19.5819 44.74 19.8119 44.95 19.9719 45.21V44.42H21.6819V50H19.9719V49.21C19.8052 49.47 19.5719 49.68 19.2719 49.84C18.9786 50 18.6352 50.08 18.2419 50.08C17.7886 50.08 17.3752 49.9633 17.0019 49.73C16.6286 49.49 16.3319 49.1533 16.1119 48.72C15.8986 48.28 15.7919 47.7733 15.7919 47.2ZM19.9719 47.21C19.9719 46.7833 19.8519 46.4467 19.6119 46.2C19.3786 45.9533 19.0919 45.83 18.7519 45.83C18.4119 45.83 18.1219 45.9533 17.8819 46.2C17.6486 46.44 17.5319 46.7733 17.5319 47.2C17.5319 47.6267 17.6486 47.9667 17.8819 48.22C18.1219 48.4667 18.4119 48.59 18.7519 48.59C19.0919 48.59 19.3786 48.4667 19.6119 48.22C19.8519 47.9733 19.9719 47.6367 19.9719 47.21ZM22.779 47.21C22.779 46.63 22.8957 46.1233 23.129 45.69C23.369 45.2567 23.699 44.9233 24.119 44.69C24.5457 44.4567 25.0324 44.34 25.579 44.34C26.279 44.34 26.8624 44.5233 27.329 44.89C27.8024 45.2567 28.1124 45.7733 28.259 46.44H26.439C26.2857 46.0133 25.989 45.8 25.549 45.8C25.2357 45.8 24.9857 45.9233 24.799 46.17C24.6124 46.41 24.519 46.7567 24.519 47.21C24.519 47.6633 24.6124 48.0133 24.799 48.26C24.9857 48.5 25.2357 48.62 25.549 48.62C25.989 48.62 26.2857 48.4067 26.439 47.98H28.259C28.1124 48.6333 27.8024 49.1467 27.329 49.52C26.8557 49.8933 26.2724 50.08 25.579 50.08C25.0324 50.08 24.5457 49.9633 24.119 49.73C23.699 49.4967 23.369 49.1633 23.129 48.73C22.8957 48.2967 22.779 47.79 22.779 47.21ZM32.4837 48.55V50H31.6137C30.9937 50 30.5104 49.85 30.1637 49.55C29.817 49.2433 29.6437 48.7467 29.6437 48.06V45.84H28.9637V44.42H29.6437V43.06H31.3537V44.42H32.4737V45.84H31.3537V48.08C31.3537 48.2467 31.3937 48.3667 31.4737 48.44C31.5537 48.5133 31.687 48.55 31.8737 48.55H32.4837ZM38.0362 42.98V47.76C38.0362 48.5 37.8262 49.07 37.4062 49.47C36.9929 49.87 36.4329 50.07 35.7262 50.07C34.9862 50.07 34.3929 49.86 33.9462 49.44C33.4995 49.02 33.2762 48.4233 33.2762 47.65H34.9762C34.9762 47.9433 35.0362 48.1667 35.1562 48.32C35.2762 48.4667 35.4495 48.54 35.6762 48.54C35.8829 48.54 36.0429 48.4733 36.1562 48.34C36.2695 48.2067 36.3262 48.0133 36.3262 47.76V42.98H38.0362ZM41.8875 50.08C41.4008 50.08 40.9675 49.9967 40.5875 49.83C40.2075 49.6633 39.9075 49.4367 39.6875 49.15C39.4675 48.8567 39.3441 48.53 39.3175 48.17H41.0075C41.0275 48.3633 41.1175 48.52 41.2775 48.64C41.4375 48.76 41.6341 48.82 41.8675 48.82C42.0808 48.82 42.2441 48.78 42.3575 48.7C42.4775 48.6133 42.5375 48.5033 42.5375 48.37C42.5375 48.21 42.4541 48.0933 42.2875 48.02C42.1208 47.94 41.8508 47.8533 41.4775 47.76C41.0775 47.6667 40.7441 47.57 40.4775 47.47C40.2108 47.3633 39.9808 47.2 39.7875 46.98C39.5941 46.7533 39.4975 46.45 39.4975 46.07C39.4975 45.75 39.5841 45.46 39.7575 45.2C39.9375 44.9333 40.1975 44.7233 40.5375 44.57C40.8841 44.4167 41.2941 44.34 41.7675 44.34C42.4675 44.34 43.0175 44.5133 43.4175 44.86C43.8241 45.2067 44.0575 45.6667 44.1175 46.24H42.5375C42.5108 46.0467 42.4241 45.8933 42.2775 45.78C42.1375 45.6667 41.9508 45.61 41.7175 45.61C41.5175 45.61 41.3641 45.65 41.2575 45.73C41.1508 45.8033 41.0975 45.9067 41.0975 46.04C41.0975 46.2 41.1808 46.32 41.3475 46.4C41.5208 46.48 41.7875 46.56 42.1475 46.64C42.5608 46.7467 42.8975 46.8533 43.1575 46.96C43.4175 47.06 43.6441 47.2267 43.8375 47.46C44.0375 47.6867 44.1408 47.9933 44.1475 48.38C44.1475 48.7067 44.0541 49 43.8675 49.26C43.6875 49.5133 43.4241 49.7133 43.0775 49.86C42.7375 50.0067 42.3408 50.08 41.8875 50.08Z" fill="white"/>
<g clip-path="url(#clip0_146_21)">
<path d="M39.1965 20C39.1965 17.6183 36.9648 15.5317 33.4181 14.1667C33.4664 13.8667 33.5464 13.55 33.5848 13.2583C33.9464 9.82834 33.1298 7.35334 31.2865 6.28834C29.2281 5.09834 26.3148 5.97834 23.3681 8.35334C20.4165 5.98167 17.4998 5.10167 15.4465 6.28834C13.6015 7.35334 12.7798 9.82834 13.1481 13.2583C13.1781 13.55 13.2598 13.8667 13.3065 14.1667C9.76145 15.5317 7.52979 17.6183 7.52979 20C7.52979 22.3817 9.76145 24.4683 13.3065 25.8333C13.2598 26.1333 13.1781 26.45 13.1481 26.7417C12.7848 30.1717 13.6015 32.6467 15.4465 33.7117C16.0731 34.0667 16.7848 34.2483 17.5048 34.2383C19.6898 34.0391 21.7482 33.1253 23.3615 31.6383C24.9755 33.1251 27.0344 34.0389 29.2198 34.2383C29.941 34.2486 30.652 34.0668 31.2798 33.7117C33.1231 32.6467 33.9465 30.1717 33.5781 26.7417C33.5465 26.45 33.4664 26.1333 33.4114 25.8333C36.9648 24.4683 39.1965 22.3817 39.1965 20ZM29.1798 7.42C29.6221 7.40997 30.0592 7.51752 30.4465 7.73167C31.6681 8.43834 32.2048 10.3867 31.9198 13.085C31.8998 13.2617 31.8481 13.455 31.8231 13.635C30.4215 13.23 28.9898 12.9383 27.5398 12.7633C26.6603 11.5904 25.6865 10.4912 24.6281 9.47667C25.8933 8.33258 27.485 7.61338 29.1798 7.42ZM15.9848 22.055C16.2715 22.6217 16.5431 23.1883 16.8665 23.75C17.1898 24.3117 17.5248 24.8433 17.8665 25.365C16.9622 25.2086 16.0679 24.9994 15.1881 24.7383C15.4012 23.8291 15.6672 22.9332 15.9848 22.055ZM15.1865 15.2617C16.0662 15.0006 16.9605 14.7914 17.8648 14.635C17.5231 15.1567 17.1898 15.6917 16.8648 16.25C16.5398 16.8083 16.2698 17.3783 15.9831 17.945C15.6665 17.0667 15.3998 16.1717 15.1865 15.2617ZM16.8331 20C17.2767 19.0033 17.7707 18.0299 18.3131 17.0833C18.8631 16.1367 19.4631 15.22 20.1065 14.3333C21.1381 14.2317 22.2231 14.1667 23.3631 14.1667C24.5031 14.1667 25.5848 14.225 26.6165 14.3333C27.2618 15.2215 27.862 16.1415 28.4148 17.09C28.9565 18.035 29.4498 19.0067 29.8931 20C29.0082 21.9985 27.9173 23.8994 26.6381 25.6717C24.46 25.8956 22.2646 25.8956 20.0865 25.6717C19.4498 24.7828 18.8568 23.8634 18.3098 22.9167C17.7685 21.9701 17.2756 20.9966 16.8331 20ZM29.8598 23.75C30.1931 23.1883 30.4564 22.6217 30.7431 22.055C31.0615 22.9333 31.3265 23.83 31.5398 24.74C30.6596 24.9996 29.7654 25.2089 28.8615 25.3667C29.1981 24.8433 29.5348 24.3083 29.8565 23.75H29.8598ZM30.7431 17.945C30.4564 17.3783 30.1848 16.8117 29.8598 16.25C29.5417 15.7018 29.2083 15.1627 28.8598 14.6333C29.7631 14.7917 30.6565 15 31.5364 15.26C31.3245 16.17 31.0584 17.0666 30.7398 17.945H30.7431ZM23.3615 10.5667C24.0281 11.1917 24.6565 11.855 25.2448 12.555C24.6281 12.5217 24.0015 12.5 23.3631 12.5C22.7248 12.5 22.0965 12.5217 21.4781 12.555C22.0665 11.855 22.6948 11.1933 23.3615 10.5667ZM16.2798 7.73334C16.667 7.51918 17.1041 7.41163 17.5465 7.42167C19.2399 7.61525 20.8303 8.33382 22.0948 9.47667C21.0369 10.4916 20.0631 11.5908 19.1831 12.7633C17.7331 12.9383 16.3031 13.23 14.9015 13.6367C14.8765 13.455 14.8231 13.2617 14.8048 13.085C14.5198 10.3867 15.0565 8.44 16.2798 7.73334ZM9.19645 20C9.19645 18.5 10.8198 16.95 13.6048 15.8233C13.9681 17.2517 14.4448 18.6483 15.0315 20C14.4448 21.3517 13.9681 22.75 13.6048 24.1767C10.8198 23.05 9.19645 21.5 9.19645 20ZM16.2798 32.2683C15.0565 31.5633 14.5198 29.6133 14.8048 26.915C14.8231 26.7383 14.8765 26.545 14.9015 26.3633C16.3015 26.7683 17.7298 27.06 19.1748 27.2367C20.0601 28.4151 21.0394 29.5198 22.1031 30.54C19.7348 32.3883 17.5798 33.02 16.2798 32.2683ZM21.4631 27.4433C22.0865 27.4783 22.7181 27.5 23.3631 27.5C24.0081 27.5 24.6381 27.4783 25.2615 27.4433C24.6677 28.1544 24.0333 28.8306 23.3615 29.4683C22.6897 28.8309 22.0559 28.1548 21.4631 27.4433ZM30.4465 32.2683C29.1431 33.02 26.9881 32.3883 24.6131 30.5383C25.6774 29.5193 26.6568 28.4151 27.5415 27.2367C28.9874 27.0604 30.4169 26.7689 31.8165 26.365C31.8415 26.545 31.8931 26.7383 31.9131 26.915C32.2048 29.6133 31.6665 31.5633 30.4465 32.2683ZM33.1131 24.1783C32.752 22.7499 32.2772 21.3527 31.6931 20C32.2798 18.6467 32.7565 17.25 33.1198 15.8217C35.9048 16.95 37.5298 18.5 37.5298 20C37.5298 21.5 35.9048 23.05 33.1198 24.1783H33.1131Z" fill="#9EB9E6"/>
<path d="M23.3585 22.955C23.9491 22.957 24.527 22.7838 25.0191 22.4574C25.5113 22.131 25.8957 21.6661 26.1237 21.1213C26.3516 20.5765 26.413 19.9764 26.2999 19.3967C26.1869 18.8171 25.9046 18.2839 25.4886 17.8647C25.0727 17.4455 24.5418 17.159 23.963 17.0415C23.3843 16.9239 22.7837 16.9806 22.2371 17.2043C21.6906 17.428 21.2226 17.8087 20.8924 18.2983C20.5622 18.7879 20.3845 19.3644 20.3819 19.955V19.965C20.3803 20.357 20.4562 20.7454 20.6051 21.108C20.7539 21.4706 20.9729 21.8002 21.2495 22.078C21.526 22.3557 21.8547 22.5762 22.2166 22.7267C22.5785 22.8772 22.9666 22.9548 23.3585 22.955Z" fill="#9EB9E6"/>
<path d="M39.1965 19C39.1965 16.6183 36.9648 14.5317 33.4181 13.1667C33.4664 12.8667 33.5464 12.55 33.5848 12.2583C33.9464 8.82834 33.1298 6.35334 31.2865 5.28834C29.2281 4.09834 26.3148 4.97834 23.3681 7.35334C20.4165 4.98167 17.4998 4.10167 15.4465 5.28834C13.6015 6.35334 12.7798 8.82834 13.1481 12.2583C13.1781 12.55 13.2598 12.8667 13.3065 13.1667C9.76145 14.5317 7.52979 16.6183 7.52979 19C7.52979 21.3817 9.76145 23.4683 13.3065 24.8333C13.2598 25.1333 13.1781 25.45 13.1481 25.7417C12.7848 29.1717 13.6015 31.6467 15.4465 32.7117C16.0731 33.0667 16.7848 33.2483 17.5048 33.2383C19.6898 33.0391 21.7482 32.1253 23.3615 30.6383C24.9755 32.1251 27.0344 33.0389 29.2198 33.2383C29.941 33.2486 30.652 33.0668 31.2798 32.7117C33.1231 31.6467 33.9465 29.1717 33.5781 25.7417C33.5465 25.45 33.4664 25.1333 33.4114 24.8333C36.9648 23.4683 39.1965 21.3817 39.1965 19ZM29.1798 6.42C29.6221 6.40997 30.0592 6.51752 30.4465 6.73167C31.6681 7.43834 32.2048 9.38667 31.9198 12.085C31.8998 12.2617 31.8481 12.455 31.8231 12.635C30.4215 12.23 28.9898 11.9383 27.5398 11.7633C26.6603 10.5904 25.6865 9.49118 24.6281 8.47667C25.8933 7.33258 27.485 6.61338 29.1798 6.42ZM15.9848 21.055C16.2715 21.6217 16.5431 22.1883 16.8665 22.75C17.1898 23.3117 17.5248 23.8433 17.8665 24.365C16.9622 24.2086 16.0679 23.9994 15.1881 23.7383C15.4012 22.8291 15.6672 21.9332 15.9848 21.055ZM15.1865 14.2617C16.0662 14.0006 16.9605 13.7914 17.8648 13.635C17.5231 14.1567 17.1898 14.6917 16.8648 15.25C16.5398 15.8083 16.2698 16.3783 15.9831 16.945C15.6665 16.0667 15.3998 15.1717 15.1865 14.2617ZM16.8331 19C17.2767 18.0033 17.7707 17.0299 18.3131 16.0833C18.8631 15.1367 19.4631 14.22 20.1065 13.3333C21.1381 13.2317 22.2231 13.1667 23.3631 13.1667C24.5031 13.1667 25.5848 13.225 26.6165 13.3333C27.2618 14.2215 27.862 15.1415 28.4148 16.09C28.9565 17.035 29.4498 18.0067 29.8931 19C29.0082 20.9985 27.9173 22.8994 26.6381 24.6717C24.46 24.8956 22.2646 24.8956 20.0865 24.6717C19.4498 23.7828 18.8568 22.8634 18.3098 21.9167C17.7685 20.9701 17.2756 19.9966 16.8331 19ZM29.8598 22.75C30.1931 22.1883 30.4564 21.6217 30.7431 21.055C31.0615 21.9333 31.3265 22.83 31.5398 23.74C30.6596 23.9996 29.7654 24.2089 28.8615 24.3667C29.1981 23.8433 29.5348 23.3083 29.8565 22.75H29.8598ZM30.7431 16.945C30.4564 16.3783 30.1848 15.8117 29.8598 15.25C29.5417 14.7018 29.2083 14.1627 28.8598 13.6333C29.7631 13.7917 30.6565 14 31.5364 14.26C31.3245 15.17 31.0584 16.0666 30.7398 16.945H30.7431ZM23.3615 9.56667C24.0281 10.1917 24.6565 10.855 25.2448 11.555C24.6281 11.5217 24.0015 11.5 23.3631 11.5C22.7248 11.5 22.0965 11.5217 21.4781 11.555C22.0665 10.855 22.6948 10.1933 23.3615 9.56667ZM16.2798 6.73334C16.667 6.51918 17.1041 6.41163 17.5465 6.42167C19.2399 6.61525 20.8303 7.33382 22.0948 8.47667C21.0369 9.49163 20.0631 10.5908 19.1831 11.7633C17.7331 11.9383 16.3031 12.23 14.9015 12.6367C14.8765 12.455 14.8231 12.2617 14.8048 12.085C14.5198 9.38667 15.0565 7.44 16.2798 6.73334ZM9.19645 19C9.19645 17.5 10.8198 15.95 13.6048 14.8233C13.9681 16.2517 14.4448 17.6483 15.0315 19C14.4448 20.3517 13.9681 21.75 13.6048 23.1767C10.8198 22.05 9.19645 20.5 9.19645 19ZM16.2798 31.2683C15.0565 30.5633 14.5198 28.6133 14.8048 25.915C14.8231 25.7383 14.8765 25.545 14.9015 25.3633C16.3015 25.7683 17.7298 26.06 19.1748 26.2367C20.0601 27.4151 21.0394 28.5198 22.1031 29.54C19.7348 31.3883 17.5798 32.02 16.2798 31.2683ZM21.4631 26.4433C22.0865 26.4783 22.7181 26.5 23.3631 26.5C24.0081 26.5 24.6381 26.4783 25.2615 26.4433C24.6677 27.1544 24.0333 27.8306 23.3615 28.4683C22.6897 27.8309 22.0559 27.1548 21.4631 26.4433ZM30.4465 31.2683C29.1431 32.02 26.9881 31.3883 24.6131 29.5383C25.6774 28.5193 26.6568 27.4151 27.5415 26.2367C28.9874 26.0604 30.4169 25.7689 31.8165 25.365C31.8415 25.545 31.8931 25.7383 31.9131 25.915C32.2048 28.6133 31.6665 30.5633 30.4465 31.2683ZM33.1131 23.1783C32.752 21.7499 32.2772 20.3527 31.6931 19C32.2798 17.6467 32.7565 16.25 33.1198 14.8217C35.9048 15.95 37.5298 17.5 37.5298 19C37.5298 20.5 35.9048 22.05 33.1198 23.1783H33.1131Z" fill="#E5E7EB"/>
<path d="M23.3585 21.955C23.9491 21.957 24.527 21.7838 25.0191 21.4574C25.5113 21.131 25.8957 20.6661 26.1237 20.1213C26.3516 19.5765 26.413 18.9764 26.2999 18.3967C26.1869 17.8171 25.9046 17.2839 25.4886 16.8647C25.0727 16.4455 24.5418 16.159 23.963 16.0415C23.3843 15.9239 22.7837 15.9806 22.2371 16.2043C21.6906 16.428 21.2226 16.8087 20.8924 17.2983C20.5622 17.7879 20.3845 18.3644 20.3819 18.955V18.965C20.3803 19.357 20.4562 19.7454 20.6051 20.108C20.7539 20.4706 20.9729 20.8002 21.2495 21.078C21.526 21.3557 21.8547 21.5762 22.2166 21.7267C22.5785 21.8772 22.9666 21.9548 23.3585 21.955Z" fill="#E5E7EB"/>
</g>
<defs>
<clipPath id="clip0_146_21">
<rect width="40" height="40" fill="white" transform="translate(3)"/>
</clipPath>
</defs>
</svg>
