<svg width="58" height="55" viewBox="0 0 58 55" fill="none" xmlns="http://www.w3.org/2000/svg">
<path d="M4.95102 51.07C4.43768 51.07 3.97768 50.9867 3.57102 50.82C3.16435 50.6533 2.83768 50.4067 2.59102 50.08C2.35102 49.7533 2.22435 49.36 2.21102 48.9H4.03102C4.05768 49.16 4.14768 49.36 4.30102 49.5C4.45435 49.6333 4.65435 49.7 4.90102 49.7C5.15435 49.7 5.35435 49.6433 5.50102 49.53C5.64768 49.41 5.72102 49.2467 5.72102 49.04C5.72102 48.8667 5.66102 48.7233 5.54102 48.61C5.42768 48.4967 5.28435 48.4033 5.11102 48.33C4.94435 48.2567 4.70435 48.1733 4.39102 48.08C3.93768 47.94 3.56768 47.8 3.28102 47.66C2.99435 47.52 2.74768 47.3133 2.54102 47.04C2.33435 46.7667 2.23102 46.41 2.23102 45.97C2.23102 45.3167 2.46768 44.8067 2.94102 44.44C3.41435 44.0667 4.03102 43.88 4.79102 43.88C5.56435 43.88 6.18768 44.0667 6.66102 44.44C7.13435 44.8067 7.38768 45.32 7.42102 45.98H5.57102C5.55768 45.7533 5.47435 45.5767 5.32102 45.45C5.16768 45.3167 4.97102 45.25 4.73102 45.25C4.52435 45.25 4.35768 45.3067 4.23102 45.42C4.10435 45.5267 4.04102 45.6833 4.04102 45.89C4.04102 46.1167 4.14768 46.2933 4.36102 46.42C4.57435 46.5467 4.90768 46.6833 5.36102 46.83C5.81435 46.9833 6.18102 47.13 6.46102 47.27C6.74768 47.41 6.99435 47.6133 7.20102 47.88C7.40768 48.1467 7.51102 48.49 7.51102 48.91C7.51102 49.31 7.40768 49.6733 7.20102 50C7.00102 50.3267 6.70768 50.5867 6.32102 50.78C5.93435 50.9733 5.47768 51.07 4.95102 51.07ZM13.7634 52.2L12.8634 50.99C12.5967 51.0433 12.3367 51.07 12.0834 51.07C11.4234 51.07 10.8167 50.9167 10.2634 50.61C9.71669 50.3033 9.28003 49.8767 8.95336 49.33C8.63336 48.7767 8.47336 48.1567 8.47336 47.47C8.47336 46.7833 8.63336 46.1667 8.95336 45.62C9.28003 45.0733 9.71669 44.6467 10.2634 44.34C10.8167 44.0333 11.4234 43.88 12.0834 43.88C12.7434 43.88 13.3467 44.0333 13.8934 44.34C14.4467 44.6467 14.88 45.0733 15.1934 45.62C15.5134 46.1667 15.6734 46.7833 15.6734 47.47C15.6734 48.07 15.55 48.62 15.3034 49.12C15.0634 49.6133 14.7267 50.0233 14.2934 50.35L15.8334 52.2H13.7634ZM10.2234 47.47C10.2234 48.09 10.39 48.5867 10.7234 48.96C11.0634 49.3267 11.5167 49.51 12.0834 49.51C12.6434 49.51 13.09 49.3233 13.4234 48.95C13.7634 48.5767 13.9334 48.0833 13.9334 47.47C13.9334 46.85 13.7634 46.3567 13.4234 45.99C13.09 45.6167 12.6434 45.43 12.0834 45.43C11.5167 45.43 11.0634 45.6133 10.7234 45.98C10.39 46.3467 10.2234 46.8433 10.2234 47.47ZM18.5542 49.68H20.7942V51H16.8442V43.98H18.5542V49.68ZM26.669 51.07C26.1557 51.07 25.6957 50.9867 25.289 50.82C24.8823 50.6533 24.5557 50.4067 24.309 50.08C24.069 49.7533 23.9423 49.36 23.929 48.9H25.749C25.7757 49.16 25.8657 49.36 26.019 49.5C26.1723 49.6333 26.3723 49.7 26.619 49.7C26.8723 49.7 27.0723 49.6433 27.219 49.53C27.3657 49.41 27.439 49.2467 27.439 49.04C27.439 48.8667 27.379 48.7233 27.259 48.61C27.1457 48.4967 27.0023 48.4033 26.829 48.33C26.6623 48.2567 26.4223 48.1733 26.109 48.08C25.6557 47.94 25.2857 47.8 24.999 47.66C24.7123 47.52 24.4657 47.3133 24.259 47.04C24.0523 46.7667 23.949 46.41 23.949 45.97C23.949 45.3167 24.1857 44.8067 24.659 44.44C25.1323 44.0667 25.749 43.88 26.509 43.88C27.2823 43.88 27.9057 44.0667 28.379 44.44C28.8523 44.8067 29.1057 45.32 29.139 45.98H27.289C27.2757 45.7533 27.1923 45.5767 27.039 45.45C26.8857 45.3167 26.689 45.25 26.449 45.25C26.2423 45.25 26.0757 45.3067 25.949 45.42C25.8223 45.5267 25.759 45.6833 25.759 45.89C25.759 46.1167 25.8657 46.2933 26.079 46.42C26.2923 46.5467 26.6257 46.6833 27.079 46.83C27.5323 46.9833 27.899 47.13 28.179 47.27C28.4657 47.41 28.7123 47.6133 28.919 47.88C29.1257 48.1467 29.229 48.49 29.229 48.91C29.229 49.31 29.1257 49.6733 28.919 50C28.719 50.3267 28.4257 50.5867 28.039 50.78C27.6523 50.9733 27.1957 51.07 26.669 51.07ZM35.7413 48.12C35.7413 48.28 35.7313 48.4467 35.7113 48.62H31.8413C31.868 48.9667 31.978 49.2333 32.1713 49.42C32.3713 49.6 32.6147 49.69 32.9013 49.69C33.328 49.69 33.6247 49.51 33.7913 49.15H35.6113C35.518 49.5167 35.348 49.8467 35.1013 50.14C34.8613 50.4333 34.558 50.6633 34.1913 50.83C33.8247 50.9967 33.4147 51.08 32.9613 51.08C32.4147 51.08 31.928 50.9633 31.5013 50.73C31.0747 50.4967 30.7413 50.1633 30.5013 49.73C30.2613 49.2967 30.1413 48.79 30.1413 48.21C30.1413 47.63 30.258 47.1233 30.4913 46.69C30.7313 46.2567 31.0647 45.9233 31.4913 45.69C31.918 45.4567 32.408 45.34 32.9613 45.34C33.5013 45.34 33.9813 45.4533 34.4013 45.68C34.8213 45.9067 35.148 46.23 35.3813 46.65C35.6213 47.07 35.7413 47.56 35.7413 48.12ZM33.9913 47.67C33.9913 47.3767 33.8913 47.1433 33.6913 46.97C33.4913 46.7967 33.2413 46.71 32.9413 46.71C32.6547 46.71 32.4113 46.7933 32.2113 46.96C32.018 47.1267 31.898 47.3633 31.8513 47.67H33.9913ZM38.5534 46.35C38.7534 46.0433 39.0034 45.8033 39.3034 45.63C39.6034 45.45 39.9368 45.36 40.3034 45.36V47.17H39.8334C39.4068 47.17 39.0868 47.2633 38.8734 47.45C38.6601 47.63 38.5534 47.95 38.5534 48.41V51H36.8434V45.42H38.5534V46.35ZM43.8308 49.4L45.0408 45.42H46.8608L44.8808 51H42.7708L40.7908 45.42H42.6208L43.8308 49.4ZM53.0405 48.12C53.0405 48.28 53.0305 48.4467 53.0105 48.62H49.1405C49.1672 48.9667 49.2772 49.2333 49.4705 49.42C49.6705 49.6 49.9139 49.69 50.2005 49.69C50.6272 49.69 50.9239 49.51 51.0905 49.15H52.9105C52.8172 49.5167 52.6472 49.8467 52.4005 50.14C52.1605 50.4333 51.8572 50.6633 51.4905 50.83C51.1239 50.9967 50.7139 51.08 50.2605 51.08C49.7139 51.08 49.2272 50.9633 48.8005 50.73C48.3739 50.4967 48.0405 50.1633 47.8005 49.73C47.5605 49.2967 47.4405 48.79 47.4405 48.21C47.4405 47.63 47.5572 47.1233 47.7905 46.69C48.0305 46.2567 48.3639 45.9233 48.7905 45.69C49.2172 45.4567 49.7072 45.34 50.2605 45.34C50.8005 45.34 51.2805 45.4533 51.7005 45.68C52.1205 45.9067 52.4472 46.23 52.6805 46.65C52.9205 47.07 53.0405 47.56 53.0405 48.12ZM51.2905 47.67C51.2905 47.3767 51.1905 47.1433 50.9905 46.97C50.7905 46.7967 50.5405 46.71 50.2405 46.71C49.9539 46.71 49.7105 46.7933 49.5105 46.96C49.3172 47.1267 49.1972 47.3633 49.1505 47.67H51.2905ZM55.8527 46.35C56.0527 46.0433 56.3027 45.8033 56.6027 45.63C56.9027 45.45 57.236 45.36 57.6027 45.36V47.17H57.1327C56.706 47.17 56.386 47.2633 56.1727 47.45C55.9593 47.63 55.8527 47.95 55.8527 48.41V51H54.1427V45.42H55.8527V46.35Z" fill="#9EB9E6"/>
<path d="M3.55551 51.07C3.04217 51.07 2.58217 50.9867 2.17551 50.82C1.76884 50.6533 1.44217 50.4067 1.19551 50.08C0.955508 49.7533 0.828841 49.36 0.815508 48.9H2.63551C2.66217 49.16 2.75217 49.36 2.90551 49.5C3.05884 49.6333 3.25884 49.7 3.50551 49.7C3.75884 49.7 3.95884 49.6433 4.10551 49.53C4.25217 49.41 4.32551 49.2467 4.32551 49.04C4.32551 48.8667 4.26551 48.7233 4.14551 48.61C4.03217 48.4967 3.88884 48.4033 3.71551 48.33C3.54884 48.2567 3.30884 48.1733 2.99551 48.08C2.54217 47.94 2.17217 47.8 1.88551 47.66C1.59884 47.52 1.35217 47.3133 1.14551 47.04C0.938841 46.7667 0.835508 46.41 0.835508 45.97C0.835508 45.3167 1.07217 44.8067 1.54551 44.44C2.01884 44.0667 2.63551 43.88 3.39551 43.88C4.16884 43.88 4.79217 44.0667 5.26551 44.44C5.73884 44.8067 5.99217 45.32 6.02551 45.98H4.17551C4.16217 45.7533 4.07884 45.5767 3.92551 45.45C3.77217 45.3167 3.57551 45.25 3.33551 45.25C3.12884 45.25 2.96217 45.3067 2.83551 45.42C2.70884 45.5267 2.64551 45.6833 2.64551 45.89C2.64551 46.1167 2.75217 46.2933 2.96551 46.42C3.17884 46.5467 3.51217 46.6833 3.96551 46.83C4.41884 46.9833 4.78551 47.13 5.06551 47.27C5.35217 47.41 5.59884 47.6133 5.80551 47.88C6.01217 48.1467 6.11551 48.49 6.11551 48.91C6.11551 49.31 6.01217 49.6733 5.80551 50C5.60551 50.3267 5.31217 50.5867 4.92551 50.78C4.53884 50.9733 4.08217 51.07 3.55551 51.07ZM12.3679 52.2L11.4679 50.99C11.2012 51.0433 10.9412 51.07 10.6879 51.07C10.0279 51.07 9.42118 50.9167 8.86785 50.61C8.32118 50.3033 7.88452 49.8767 7.55785 49.33C7.23785 48.7767 7.07785 48.1567 7.07785 47.47C7.07785 46.7833 7.23785 46.1667 7.55785 45.62C7.88452 45.0733 8.32118 44.6467 8.86785 44.34C9.42118 44.0333 10.0279 43.88 10.6879 43.88C11.3479 43.88 11.9512 44.0333 12.4979 44.34C13.0512 44.6467 13.4845 45.0733 13.7979 45.62C14.1179 46.1667 14.2779 46.7833 14.2779 47.47C14.2779 48.07 14.1545 48.62 13.9079 49.12C13.6679 49.6133 13.3312 50.0233 12.8979 50.35L14.4379 52.2H12.3679ZM8.82785 47.47C8.82785 48.09 8.99452 48.5867 9.32785 48.96C9.66785 49.3267 10.1212 49.51 10.6879 49.51C11.2479 49.51 11.6945 49.3233 12.0279 48.95C12.3679 48.5767 12.5379 48.0833 12.5379 47.47C12.5379 46.85 12.3679 46.3567 12.0279 45.99C11.6945 45.6167 11.2479 45.43 10.6879 45.43C10.1212 45.43 9.66785 45.6133 9.32785 45.98C8.99452 46.3467 8.82785 46.8433 8.82785 47.47ZM17.1587 49.68H19.3987V51H15.4487V43.98H17.1587V49.68ZM25.2735 51.07C24.7601 51.07 24.3001 50.9867 23.8935 50.82C23.4868 50.6533 23.1601 50.4067 22.9135 50.08C22.6735 49.7533 22.5468 49.36 22.5335 48.9H24.3535C24.3801 49.16 24.4701 49.36 24.6235 49.5C24.7768 49.6333 24.9768 49.7 25.2235 49.7C25.4768 49.7 25.6768 49.6433 25.8235 49.53C25.9701 49.41 26.0435 49.2467 26.0435 49.04C26.0435 48.8667 25.9835 48.7233 25.8635 48.61C25.7501 48.4967 25.6068 48.4033 25.4335 48.33C25.2668 48.2567 25.0268 48.1733 24.7135 48.08C24.2601 47.94 23.8901 47.8 23.6035 47.66C23.3168 47.52 23.0701 47.3133 22.8635 47.04C22.6568 46.7667 22.5535 46.41 22.5535 45.97C22.5535 45.3167 22.7901 44.8067 23.2635 44.44C23.7368 44.0667 24.3535 43.88 25.1135 43.88C25.8868 43.88 26.5101 44.0667 26.9835 44.44C27.4568 44.8067 27.7101 45.32 27.7435 45.98H25.8935C25.8801 45.7533 25.7968 45.5767 25.6435 45.45C25.4901 45.3167 25.2935 45.25 25.0535 45.25C24.8468 45.25 24.6801 45.3067 24.5535 45.42C24.4268 45.5267 24.3635 45.6833 24.3635 45.89C24.3635 46.1167 24.4701 46.2933 24.6835 46.42C24.8968 46.5467 25.2301 46.6833 25.6835 46.83C26.1368 46.9833 26.5035 47.13 26.7835 47.27C27.0701 47.41 27.3168 47.6133 27.5235 47.88C27.7301 48.1467 27.8335 48.49 27.8335 48.91C27.8335 49.31 27.7301 49.6733 27.5235 50C27.3235 50.3267 27.0301 50.5867 26.6435 50.78C26.2568 50.9733 25.8001 51.07 25.2735 51.07ZM34.3458 48.12C34.3458 48.28 34.3358 48.4467 34.3158 48.62H30.4458C30.4725 48.9667 30.5825 49.2333 30.7758 49.42C30.9758 49.6 31.2192 49.69 31.5058 49.69C31.9325 49.69 32.2292 49.51 32.3958 49.15H34.2158C34.1225 49.5167 33.9525 49.8467 33.7058 50.14C33.4658 50.4333 33.1625 50.6633 32.7958 50.83C32.4292 50.9967 32.0192 51.08 31.5658 51.08C31.0192 51.08 30.5325 50.9633 30.1058 50.73C29.6792 50.4967 29.3458 50.1633 29.1058 49.73C28.8658 49.2967 28.7458 48.79 28.7458 48.21C28.7458 47.63 28.8625 47.1233 29.0958 46.69C29.3358 46.2567 29.6692 45.9233 30.0958 45.69C30.5225 45.4567 31.0125 45.34 31.5658 45.34C32.1058 45.34 32.5858 45.4533 33.0058 45.68C33.4258 45.9067 33.7525 46.23 33.9858 46.65C34.2258 47.07 34.3458 47.56 34.3458 48.12ZM32.5958 47.67C32.5958 47.3767 32.4958 47.1433 32.2958 46.97C32.0958 46.7967 31.8458 46.71 31.5458 46.71C31.2592 46.71 31.0158 46.7933 30.8158 46.96C30.6225 47.1267 30.5025 47.3633 30.4558 47.67H32.5958ZM37.1579 46.35C37.3579 46.0433 37.6079 45.8033 37.9079 45.63C38.2079 45.45 38.5413 45.36 38.9079 45.36V47.17H38.4379C38.0113 47.17 37.6913 47.2633 37.4779 47.45C37.2646 47.63 37.1579 47.95 37.1579 48.41V51H35.4479V45.42H37.1579V46.35ZM42.4353 49.4L43.6453 45.42H45.4653L43.4853 51H41.3753L39.3953 45.42H41.2253L42.4353 49.4ZM51.645 48.12C51.645 48.28 51.635 48.4467 51.615 48.62H47.745C47.7717 48.9667 47.8817 49.2333 48.075 49.42C48.275 49.6 48.5184 49.69 48.805 49.69C49.2317 49.69 49.5284 49.51 49.695 49.15H51.515C51.4217 49.5167 51.2517 49.8467 51.005 50.14C50.765 50.4333 50.4617 50.6633 50.095 50.83C49.7284 50.9967 49.3184 51.08 48.865 51.08C48.3184 51.08 47.8317 50.9633 47.405 50.73C46.9784 50.4967 46.645 50.1633 46.405 49.73C46.165 49.2967 46.045 48.79 46.045 48.21C46.045 47.63 46.1617 47.1233 46.395 46.69C46.635 46.2567 46.9684 45.9233 47.395 45.69C47.8217 45.4567 48.3117 45.34 48.865 45.34C49.405 45.34 49.885 45.4533 50.305 45.68C50.725 45.9067 51.0517 46.23 51.285 46.65C51.525 47.07 51.645 47.56 51.645 48.12ZM49.895 47.67C49.895 47.3767 49.795 47.1433 49.595 46.97C49.395 46.7967 49.145 46.71 48.845 46.71C48.5584 46.71 48.315 46.7933 48.115 46.96C47.9217 47.1267 47.8017 47.3633 47.755 47.67H49.895ZM54.4571 46.35C54.6571 46.0433 54.9071 45.8033 55.2071 45.63C55.5071 45.45 55.8405 45.36 56.2071 45.36V47.17H55.7371C55.3105 47.17 54.9905 47.2633 54.7771 47.45C54.5638 47.63 54.4571 47.95 54.4571 48.41V51H52.7471V45.42H54.4571V46.35Z" fill="#E5E7EB"/>
<path d="M42 16.8625C41.075 17.475 40.0125 17.9687 38.9062 18.3625C35.9688 19.4125 32.1125 20 28 20C23.8875 20 20.025 19.4062 17.0938 18.3625C15.9937 17.9687 14.925 17.475 14 16.8625V22C14 24.7625 20.2688 27 28 27C35.7313 27 42 24.7625 42 22V16.8625ZM42 12V9C42 6.2375 35.7313 4 28 4C20.2688 4 14 6.2375 14 9V12C14 14.7625 20.2688 17 28 17C35.7313 17 42 14.7625 42 12ZM38.9062 28.3625C35.975 29.4062 32.1187 30 28 30C23.8813 30 20.025 29.4062 17.0938 28.3625C15.9937 27.9688 14.925 27.475 14 26.8625V31C14 33.7625 20.2688 36 28 36C35.7313 36 42 33.7625 42 31V26.8625C41.075 27.475 40.0125 27.9688 38.9062 28.3625Z" fill="#9EB9E6"/>
<path d="M42 14.8625C41.075 15.475 40.0125 15.9687 38.9062 16.3625C35.9688 17.4125 32.1125 18 28 18C23.8875 18 20.025 17.4062 17.0938 16.3625C15.9937 15.9687 14.925 15.475 14 14.8625V20C14 22.7625 20.2688 25 28 25C35.7313 25 42 22.7625 42 20V14.8625ZM42 10V7C42 4.2375 35.7313 2 28 2C20.2688 2 14 4.2375 14 7V10C14 12.7625 20.2688 15 28 15C35.7313 15 42 12.7625 42 10ZM38.9062 26.3625C35.975 27.4062 32.1187 28 28 28C23.8813 28 20.025 27.4062 17.0938 26.3625C15.9937 25.9688 14.925 25.475 14 24.8625V29C14 31.7625 20.2688 34 28 34C35.7313 34 42 31.7625 42 29V24.8625C41.075 25.475 40.0125 25.9688 38.9062 26.3625Z" fill="#E5E7EB"/>
</svg>
