<svg width="48" height="47" viewBox="0 0 48 47" fill="none" xmlns="http://www.w3.org/2000/svg">
<path d="M23.3033 2.00632C21.3482 1.97977 19.4517 2.67424 17.9761 3.95713C16.5004 5.24002 15.549 7.02146 15.3033 8.96132C15.7767 8.15472 16.4408 7.47659 17.2372 6.98638C18.0337 6.49617 18.9383 6.20887 19.8717 6.14965C22.6867 6.14965 24.8283 9.43632 26.135 10.4613C27.3825 11.4468 28.8562 12.1054 30.4225 12.3775C31.9888 12.6496 33.5982 12.5266 35.105 12.0196C38.4383 10.9563 39.995 7.24465 40.3333 5.48465C38.7183 7.78298 36.2667 9.16298 33.235 7.53632C31.1467 6.41465 29.585 1.80632 23.3033 2.00632ZM15 12.438C13.045 12.411 11.1486 13.1051 9.67287 14.3877C8.19718 15.6704 7.24565 17.4516 7 19.3913C7.47411 18.5839 8.13923 17.9053 8.93693 17.4151C9.73463 16.9248 10.6405 16.6379 11.575 16.5796C14.39 16.5796 16.5317 19.8663 17.8383 20.8913C19.0858 21.8768 20.5595 22.5354 22.1258 22.8075C23.6921 23.0796 25.3016 22.9566 26.8083 22.4496C30.1417 21.3863 31.6967 17.6746 32.0367 15.9146C30.42 18.213 27.97 19.5946 24.9383 17.9663C22.85 16.8446 21.2883 12.228 15 12.438Z" fill="#9EB9E6"/>
<path d="M23.3033 0.00631587C21.3482 -0.0202332 19.4517 0.674237 17.9761 1.95713C16.5004 3.24002 15.549 5.02146 15.3033 6.96132C15.7767 6.15472 16.4408 5.47659 17.2372 4.98638C18.0337 4.49617 18.9383 4.20887 19.8717 4.14965C22.6867 4.14965 24.8283 7.43632 26.135 8.46132C27.3825 9.44678 28.8562 10.1054 30.4225 10.3775C31.9888 10.6496 33.5982 10.5266 35.105 10.0196C38.4383 8.95632 39.995 5.24465 40.3333 3.48465C38.7183 5.78298 36.2667 7.16298 33.235 5.53632C31.1467 4.41465 29.585 -0.193684 23.3033 0.00631587ZM15 10.438C13.045 10.411 11.1486 11.1051 9.67287 12.3877C8.19718 13.6704 7.24565 15.4516 7 17.3913C7.47411 16.5839 8.13923 15.9053 8.93693 15.4151C9.73463 14.9248 10.6405 14.6379 11.575 14.5796C14.39 14.5796 16.5317 17.8663 17.8383 18.8913C19.0858 19.8768 20.5595 20.5354 22.1258 20.8075C23.6921 21.0796 25.3016 20.9566 26.8083 20.4496C30.1417 19.3863 31.6967 15.6746 32.0367 13.9146C30.42 16.213 27.97 17.5946 24.9383 15.9663C22.85 14.8446 21.2883 10.228 15 10.438Z" fill="#E5E7EB"/>
<path d="M7.60477 32.98V34.35H5.74476V40H4.03476V34.35H2.17476V32.98H7.60477ZM8.32297 37.2C8.32297 36.6267 8.42963 36.1233 8.64297 35.69C8.86297 35.2567 9.15963 34.9233 9.53297 34.69C9.9063 34.4567 10.323 34.34 10.783 34.34C11.1763 34.34 11.5196 34.42 11.813 34.58C12.113 34.74 12.343 34.95 12.503 35.21V34.42H14.213V40H12.503V39.21C12.3363 39.47 12.103 39.68 11.803 39.84C11.5096 40 11.1663 40.08 10.773 40.08C10.3196 40.08 9.9063 39.9633 9.53297 39.73C9.15963 39.49 8.86297 39.1533 8.64297 38.72C8.42963 38.28 8.32297 37.7733 8.32297 37.2ZM12.503 37.21C12.503 36.7833 12.383 36.4467 12.143 36.2C11.9096 35.9533 11.623 35.83 11.283 35.83C10.943 35.83 10.653 35.9533 10.413 36.2C10.1796 36.44 10.063 36.7733 10.063 37.2C10.063 37.6267 10.1796 37.9667 10.413 38.22C10.653 38.4667 10.943 38.59 11.283 38.59C11.623 38.59 11.9096 38.4667 12.143 38.22C12.383 37.9733 12.503 37.6367 12.503 37.21ZM16.5101 33.84C16.2101 33.84 15.9634 33.7533 15.7701 33.58C15.5834 33.4 15.4901 33.18 15.4901 32.92C15.4901 32.6533 15.5834 32.4333 15.7701 32.26C15.9634 32.08 16.2101 31.99 16.5101 31.99C16.8034 31.99 17.0434 32.08 17.2301 32.26C17.4234 32.4333 17.5201 32.6533 17.5201 32.92C17.5201 33.18 17.4234 33.4 17.2301 33.58C17.0434 33.7533 16.8034 33.84 16.5101 33.84ZM17.3601 34.42V40H15.6501V34.42H17.3601ZM20.5093 32.6V40H18.7993V32.6H20.5093ZM29.9585 34.42L28.4485 40H26.5585L25.6785 36.38L24.7685 40H22.8885L21.3685 34.42H23.0785L23.8685 38.41L24.8085 34.42H26.6185L27.5685 38.39L28.3485 34.42H29.9585ZM31.6706 33.84C31.3706 33.84 31.124 33.7533 30.9306 33.58C30.744 33.4 30.6506 33.18 30.6506 32.92C30.6506 32.6533 30.744 32.4333 30.9306 32.26C31.124 32.08 31.3706 31.99 31.6706 31.99C31.964 31.99 32.204 32.08 32.3906 32.26C32.584 32.4333 32.6806 32.6533 32.6806 32.92C32.6806 33.18 32.584 33.4 32.3906 33.58C32.204 33.7533 31.964 33.84 31.6706 33.84ZM32.5206 34.42V40H30.8106V34.42H32.5206ZM37.3598 34.36C38.0132 34.36 38.5332 34.5733 38.9198 35C39.3132 35.42 39.5098 36 39.5098 36.74V40H37.8098V36.97C37.8098 36.5967 37.7132 36.3067 37.5198 36.1C37.3265 35.8933 37.0665 35.79 36.7398 35.79C36.4132 35.79 36.1532 35.8933 35.9598 36.1C35.7665 36.3067 35.6698 36.5967 35.6698 36.97V40H33.9598V34.42H35.6698V35.16C35.8432 34.9133 36.0765 34.72 36.3698 34.58C36.6632 34.4333 36.9932 34.36 37.3598 34.36ZM40.5581 37.2C40.5581 36.6267 40.6648 36.1233 40.8781 35.69C41.0981 35.2567 41.3948 34.9233 41.7681 34.69C42.1415 34.4567 42.5581 34.34 43.0181 34.34C43.3848 34.34 43.7181 34.4167 44.0181 34.57C44.3248 34.7233 44.5648 34.93 44.7381 35.19V32.6H46.4481V40H44.7381V39.2C44.5781 39.4667 44.3481 39.68 44.0481 39.84C43.7548 40 43.4115 40.08 43.0181 40.08C42.5581 40.08 42.1415 39.9633 41.7681 39.73C41.3948 39.49 41.0981 39.1533 40.8781 38.72C40.6648 38.28 40.5581 37.7733 40.5581 37.2ZM44.7381 37.21C44.7381 36.7833 44.6181 36.4467 44.3781 36.2C44.1448 35.9533 43.8581 35.83 43.5181 35.83C43.1781 35.83 42.8881 35.9533 42.6481 36.2C42.4148 36.44 42.2981 36.7733 42.2981 37.2C42.2981 37.6267 42.4148 37.9667 42.6481 38.22C42.8881 38.4667 43.1781 38.59 43.5181 38.59C43.8581 38.59 44.1448 38.4667 44.3781 38.22C44.6181 37.9733 44.7381 37.6367 44.7381 37.21Z" fill="#9EB9E6"/>
<path d="M6.60477 32.98V34.35H4.74476V40H3.03476V34.35H1.17476V32.98H6.60477ZM7.32297 37.2C7.32297 36.6267 7.42963 36.1233 7.64297 35.69C7.86297 35.2567 8.15963 34.9233 8.53297 34.69C8.9063 34.4567 9.32297 34.34 9.78297 34.34C10.1763 34.34 10.5196 34.42 10.813 34.58C11.113 34.74 11.343 34.95 11.503 35.21V34.42H13.213V40H11.503V39.21C11.3363 39.47 11.103 39.68 10.803 39.84C10.5096 40 10.1663 40.08 9.77297 40.08C9.31963 40.08 8.9063 39.9633 8.53297 39.73C8.15963 39.49 7.86297 39.1533 7.64297 38.72C7.42963 38.28 7.32297 37.7733 7.32297 37.2ZM11.503 37.21C11.503 36.7833 11.383 36.4467 11.143 36.2C10.9096 35.9533 10.623 35.83 10.283 35.83C9.94297 35.83 9.65297 35.9533 9.41297 36.2C9.17963 36.44 9.06297 36.7733 9.06297 37.2C9.06297 37.6267 9.17963 37.9667 9.41297 38.22C9.65297 38.4667 9.94297 38.59 10.283 38.59C10.623 38.59 10.9096 38.4667 11.143 38.22C11.383 37.9733 11.503 37.6367 11.503 37.21ZM15.5101 33.84C15.2101 33.84 14.9634 33.7533 14.7701 33.58C14.5834 33.4 14.4901 33.18 14.4901 32.92C14.4901 32.6533 14.5834 32.4333 14.7701 32.26C14.9634 32.08 15.2101 31.99 15.5101 31.99C15.8034 31.99 16.0434 32.08 16.2301 32.26C16.4234 32.4333 16.5201 32.6533 16.5201 32.92C16.5201 33.18 16.4234 33.4 16.2301 33.58C16.0434 33.7533 15.8034 33.84 15.5101 33.84ZM16.3601 34.42V40H14.6501V34.42H16.3601ZM19.5093 32.6V40H17.7993V32.6H19.5093ZM28.9585 34.42L27.4485 40H25.5585L24.6785 36.38L23.7685 40H21.8885L20.3685 34.42H22.0785L22.8685 38.41L23.8085 34.42H25.6185L26.5685 38.39L27.3485 34.42H28.9585ZM30.6706 33.84C30.3706 33.84 30.124 33.7533 29.9306 33.58C29.744 33.4 29.6506 33.18 29.6506 32.92C29.6506 32.6533 29.744 32.4333 29.9306 32.26C30.124 32.08 30.3706 31.99 30.6706 31.99C30.964 31.99 31.204 32.08 31.3906 32.26C31.584 32.4333 31.6806 32.6533 31.6806 32.92C31.6806 33.18 31.584 33.4 31.3906 33.58C31.204 33.7533 30.964 33.84 30.6706 33.84ZM31.5206 34.42V40H29.8106V34.42H31.5206ZM36.3598 34.36C37.0132 34.36 37.5332 34.5733 37.9198 35C38.3132 35.42 38.5098 36 38.5098 36.74V40H36.8098V36.97C36.8098 36.5967 36.7132 36.3067 36.5198 36.1C36.3265 35.8933 36.0665 35.79 35.7398 35.79C35.4132 35.79 35.1532 35.8933 34.9598 36.1C34.7665 36.3067 34.6698 36.5967 34.6698 36.97V40H32.9598V34.42H34.6698V35.16C34.8432 34.9133 35.0765 34.72 35.3698 34.58C35.6632 34.4333 35.9932 34.36 36.3598 34.36ZM39.5581 37.2C39.5581 36.6267 39.6648 36.1233 39.8781 35.69C40.0981 35.2567 40.3948 34.9233 40.7681 34.69C41.1415 34.4567 41.5581 34.34 42.0181 34.34C42.3848 34.34 42.7181 34.4167 43.0181 34.57C43.3248 34.7233 43.5648 34.93 43.7381 35.19V32.6H45.4481V40H43.7381V39.2C43.5781 39.4667 43.3481 39.68 43.0481 39.84C42.7548 40 42.4115 40.08 42.0181 40.08C41.5581 40.08 41.1415 39.9633 40.7681 39.73C40.3948 39.49 40.0981 39.1533 39.8781 38.72C39.6648 38.28 39.5581 37.7733 39.5581 37.2ZM43.7381 37.21C43.7381 36.7833 43.6181 36.4467 43.3781 36.2C43.1448 35.9533 42.8581 35.83 42.5181 35.83C42.1781 35.83 41.8881 35.9533 41.6481 36.2C41.4148 36.44 41.2981 36.7733 41.2981 37.2C41.2981 37.6267 41.4148 37.9667 41.6481 38.22C41.8881 38.4667 42.1781 38.59 42.5181 38.59C42.8581 38.59 43.1448 38.4667 43.3781 38.22C43.6181 37.9733 43.7381 37.6367 43.7381 37.21Z" fill="white"/>
</svg>
