<svg width="40" height="40" viewBox="0 0 40 40" fill="none" xmlns="http://www.w3.org/2000/svg">
<path fill-rule="evenodd" clip-rule="evenodd" d="M6.00833 20.3333L6 11.0133L17.3333 9.475V20.3367H6.00833V20.3333ZM19.3333 9.2L34.3283 7V20.3333H19.3333V9.2ZM34.445 22L34.33 35.3333L19.2217 33.2083L19.3333 22H34.445ZM17.3333 32.9667L6.00833 31.415V22H17.3333V32.9667Z" fill="#9EB9E6"/>
<path fill-rule="evenodd" clip-rule="evenodd" d="M5.00833 20L5 10.68L16.3333 9.14166V20.0033H5.00833V20ZM18.3333 8.86666L33.3283 6.66666V20H18.3333V8.86666ZM33.445 21.6667L33.33 35L18.2217 32.875L18.3333 21.6667H33.445ZM16.3333 32.6333L5.00833 31.0817V21.6667H16.3333V32.6333Z" fill="#E5E7EB"/>
</svg>
